<svg width="28" height="28" viewBox="0 0 28 28" fill="none" xmlns="http://www.w3.org/2000/svg">
<path d="M14.0019 2.33313C7.56187 2.33313 2.33521 7.5598 2.33521 13.9998C2.33521 20.4398 7.56187 25.6665 14.0019 25.6665C20.4419 25.6665 25.6685 20.4398 25.6685 13.9998C25.6685 7.5598 20.4419 2.33313 14.0019 2.33313ZM14.0019 5.83313C15.9385 5.83313 17.5019 7.39646 17.5019 9.33313C17.5019 11.2698 15.9385 12.8331 14.0019 12.8331C12.0652 12.8331 10.5019 11.2698 10.5019 9.33313C10.5019 7.39646 12.0652 5.83313 14.0019 5.83313ZM14.0019 22.3998C11.0852 22.3998 8.50687 20.9065 7.00187 18.6431C7.03687 16.3215 11.6685 15.0498 14.0019 15.0498C16.3235 15.0498 20.9669 16.3215 21.0019 18.6431C19.4969 20.9065 16.9185 22.3998 14.0019 22.3998Z" fill="#9E9E9E"/>
</svg>
