<svg width="380" height="131" viewBox="0 0 380 131" fill="none" xmlns="http://www.w3.org/2000/svg">
<g clip-path="url(#clip0_1_7311)">
<rect y="0.584961" width="380" height="130" rx="10" fill="url(#paint0_linear_1_7311)"/>
<g opacity="0.6">
<path opacity="0.5" d="M415.503 158.441C415.503 188.479 314.883 212.832 190.756 212.832C66.6296 212.832 -34 188.485 -34 158.441C-34 147.077 -19.6024 136.528 5.03238 127.801C7.94265 126.772 9.02887 125.366 11.8674 124.119C14.4497 122.98 19.1841 122.225 21.1413 120.25C25.4247 115.944 28.8064 110.276 36.3792 108.705C47.3029 106.435 67.1112 112.875 79.7155 111.14C90.1679 109.701 102.987 101.576 114.393 100.553C128.411 99.2946 132.008 106.057 148.055 105.029C157.668 104.41 159.922 102.069 171.051 101.976C180.878 101.894 182.794 103.688 190.746 104.049C209.192 104.881 213.957 95.585 230.301 95.585C245.611 95.585 257.119 106.331 271.332 107.649C285.576 108.974 303.468 104.372 316.144 106.336C329.465 108.399 337.469 117.066 348.679 119.741C352.543 120.666 356.273 121.624 359.859 122.614C363.538 123.626 369.287 123.681 372.648 124.759C379.114 126.838 382.752 130.028 387.947 132.326C390.14 133.294 396.883 134.082 399.711 135.713C405.03 138.782 404.435 141.228 407.909 144.379C412.859 148.866 415.503 153.582 415.503 158.441Z" fill="#9D81FF"/>
<path opacity="0.68" d="M415.503 158.406C415.503 188.463 314.883 212.832 190.756 212.832C66.6296 212.832 -34 188.469 -34 158.406C-34 153.988 -31.8275 149.69 -27.7183 145.578C-24.7671 142.622 -22.9533 139.014 -18.096 136.265C-12.3267 133.002 -3.14505 130.642 5.03238 127.746C7.94265 126.717 10.9964 125.709 14.1833 124.729C23.201 121.959 28.9498 113.216 39.9863 110.916C50.91 108.644 67.1112 112.81 79.7053 111.075C90.1576 109.635 103.797 103.908 115.213 102.884C126.638 101.855 135.841 105.529 148.055 104.959C154.491 104.658 161.746 103.519 168.356 103.355C175.959 103.169 182.938 103.979 190.746 103.979C203.023 103.979 219.039 99.884 230.814 99.884C246.123 99.884 257.119 106.262 271.332 107.582C285.576 108.907 303.017 106.618 315.693 108.584C329.014 110.648 337.479 117.004 348.679 119.681C352.543 120.607 358.24 120.601 361.816 121.592C366.469 122.879 368.908 125.178 373.048 126.569C378.479 128.392 383.838 128.956 388.316 130.933C390.509 131.902 392.22 134.234 394.167 135.236C396.125 136.238 397.949 137.262 399.65 138.296C409.877 144.521 415.503 151.305 415.503 158.406Z" fill="#9D81FF"/>
<path opacity="0.3" d="M-34 158.424C-34 188.453 66.6216 212.798 190.751 212.798C314.881 212.798 415.503 188.453 415.503 158.424C415.503 153.562 412.869 148.852 407.919 144.367C405.07 141.786 402.949 138.405 398.635 135.988C394.669 133.767 388.613 132.504 383.509 130.447C380.128 129.085 379.103 127.739 375.26 126.46C373.528 125.885 369.153 125.344 367.328 124.78C358.311 122.013 354.539 117.145 343.503 114.853C332.579 112.583 314.399 112.873 301.795 111.139C291.342 109.701 277.703 103.979 266.287 102.956C254.861 101.928 245.658 105.598 233.443 105.029C227.007 104.729 219.752 103.591 213.142 103.427C205.539 103.241 198.56 104.05 190.751 104.05C178.475 104.05 164.804 101.999 153.04 101.999C134.512 101.994 135.168 105.669 110.164 107.649C86.2868 109.542 85.2416 106.244 69.45 109C62.83 110.155 65.8633 110.237 32.8146 119.737C20.5175 123.271 14.1229 124.775 11.3253 125.672C4.75659 127.772 -1.40225 127.876 -6.66954 130.201C-10.1435 131.732 -13.1051 135.43 -15.9744 137.049C-21.2109 140.008 -25.392 143.098 -28.4048 146.298C-32.0632 150.198 -34 154.256 -34 158.424Z" fill="#9D81FF"/>
</g>
<circle cx="55.7156" cy="53.3006" r="22.7156" fill="white" fill-opacity="0.1"/>
<path d="M55.5079 57.107H55.9216C58.1978 57.107 60.1289 55.6492 60.8086 53.6278C60.9071 53.3335 60.6813 53.0302 60.3685 53.0302H59.094C58.6883 53.0302 58.3605 52.7065 58.3605 52.3069C58.3605 51.9063 58.6883 51.5814 59.094 51.5814H60.3295C60.7386 51.5814 61.0699 51.2543 61.0699 50.8503C61.0699 50.4462 60.7386 50.1191 60.3295 50.1191H59.094C58.6883 50.1191 58.3605 49.7943 58.3605 49.3948C58.3605 48.9941 58.6883 48.6693 59.094 48.6693H60.3295C60.7386 48.6693 61.0699 48.3422 61.0699 47.9381C61.0699 47.534 60.7386 47.2069 60.3295 47.2069H59.094C58.6883 47.2069 58.3605 46.8821 58.3605 46.4814C58.3605 46.0819 58.6883 45.7571 59.094 45.7571H60.4338C60.7409 45.7571 60.961 45.4673 60.8785 45.1742C60.2699 43.0362 58.2814 41.4697 55.9216 41.4697H55.5079C52.6644 41.4697 50.3596 43.7447 50.3596 46.5539V52.0228C50.3596 54.8309 52.6644 57.107 55.5079 57.107Z" fill="white"/>
<path opacity="0.4" d="M64.6252 50.7283C63.9925 50.7283 63.4791 51.2342 63.4791 51.8601C63.4791 56.0875 59.9961 59.5271 55.7154 59.5271C51.4336 59.5271 47.9506 56.0875 47.9506 51.8601C47.9506 51.2342 47.4372 50.7283 46.8045 50.7283C46.1719 50.7283 45.6584 51.2342 45.6584 51.8601C45.6584 56.9533 49.562 61.158 54.5693 61.7228V64C54.5693 64.6248 55.0816 65.1319 55.7154 65.1319C56.3481 65.1319 56.8615 64.6248 56.8615 64V61.7228C61.8677 61.158 65.7713 56.9533 65.7713 51.8601C65.7713 51.2342 65.2578 50.7283 64.6252 50.7283Z" fill="white"/>
<path d="M31.179 94.585H30.2557L32.9261 87.3122H33.8352L36.5057 94.585H35.5824L33.4091 88.4628H33.3523L31.179 94.585ZM31.5199 91.7441H35.2415V92.5253H31.5199V91.7441ZM38.5192 87.3122V94.585H37.6385V87.3122H38.5192ZM43.0975 94.585V87.3122H47.4867V88.0935H43.9782V90.5509H47.2594V91.3321H43.9782V93.8037H47.5435V94.585H43.0975ZM49.5854 89.1304L50.8922 91.3605L52.199 89.1304H53.165L51.4036 91.8577L53.165 94.585H52.199L50.8922 92.4685L49.5854 94.585H48.6195L50.3525 91.8577L48.6195 89.1304H49.5854ZM55.9659 94.7128C55.6203 94.7128 55.3066 94.6477 55.0249 94.5175C54.7431 94.3849 54.5194 94.1943 54.3537 93.9458C54.188 93.6948 54.1051 93.3918 54.1051 93.0367C54.1051 92.7242 54.1667 92.4709 54.2898 92.2767C54.4129 92.0802 54.5774 91.9263 54.7834 91.8151C54.9893 91.7038 55.2166 91.6209 55.4652 91.5665C55.7161 91.5097 55.9683 91.4647 56.2216 91.4316C56.553 91.3889 56.8217 91.357 57.0277 91.3357C57.236 91.312 57.3875 91.2729 57.4822 91.2185C57.5793 91.164 57.6278 91.0693 57.6278 90.9344V90.906C57.6278 90.5556 57.532 90.2834 57.3402 90.0892C57.1508 89.8951 56.8632 89.798 56.4773 89.798C56.0772 89.798 55.7635 89.8856 55.5362 90.0608C55.3089 90.236 55.1491 90.423 55.0568 90.6219L54.2614 90.3378C54.4034 90.0064 54.5928 89.7483 54.8295 89.5637C55.0687 89.3766 55.3291 89.2464 55.6108 89.173C55.8949 89.0973 56.1742 89.0594 56.4489 89.0594C56.6241 89.0594 56.8253 89.0807 57.0526 89.1233C57.2822 89.1636 57.5036 89.2476 57.7166 89.3754C57.9321 89.5033 58.1108 89.6962 58.2528 89.9543C58.3949 90.2123 58.4659 90.558 58.4659 90.9912V94.585H57.6278V93.8463H57.5852C57.5284 93.9647 57.4337 94.0914 57.3011 94.2263C57.1686 94.3612 56.9922 94.4761 56.772 94.5708C56.5518 94.6655 56.2831 94.7128 55.9659 94.7128ZM56.0938 93.96C56.4252 93.96 56.7045 93.8949 56.9318 93.7646C57.1615 93.6344 57.3343 93.4664 57.4503 93.2604C57.5687 93.0544 57.6278 92.8378 57.6278 92.6105V91.8435C57.5923 91.8861 57.5142 91.9252 57.3935 91.9607C57.2751 91.9938 57.1378 92.0234 56.9815 92.0494C56.8277 92.0731 56.6773 92.0944 56.5305 92.1134C56.3861 92.1299 56.2689 92.1441 56.179 92.156C55.9612 92.1844 55.7576 92.2306 55.5682 92.2945C55.3812 92.356 55.2296 92.4495 55.1136 92.575C55 92.6981 54.9432 92.8662 54.9432 93.0793C54.9432 93.3705 55.0509 93.5906 55.2663 93.7398C55.4841 93.8866 55.7599 93.96 56.0938 93.96ZM59.9956 94.585V89.1304H60.8052V89.9827H60.8762C60.9899 89.6915 61.1734 89.4654 61.4267 89.3044C61.68 89.1411 61.9842 89.0594 62.3393 89.0594C62.6992 89.0594 62.9986 89.1411 63.2377 89.3044C63.4792 89.4654 63.6674 89.6915 63.8024 89.9827H63.8592C63.9989 89.701 64.2084 89.4772 64.4877 89.3115C64.7671 89.1434 65.1021 89.0594 65.4927 89.0594C65.9804 89.0594 66.3793 89.2121 66.6895 89.5175C66.9996 89.8205 67.1547 90.2928 67.1547 90.9344V94.585H66.3166V90.9344C66.3166 90.5319 66.2065 90.2443 65.9863 90.0715C65.7662 89.8986 65.5069 89.8122 65.2086 89.8122C64.8251 89.8122 64.528 89.9282 64.3173 90.1602C64.1066 90.3899 64.0012 90.6811 64.0012 91.0338V94.585H63.149V90.8492C63.149 90.539 63.0484 90.2893 62.8471 90.0999C62.6459 89.9081 62.3867 89.8122 62.0694 89.8122C61.8516 89.8122 61.648 89.8702 61.4586 89.9862C61.2716 90.1022 61.1201 90.2632 61.0041 90.4692C60.8904 90.6728 60.8336 90.9084 60.8336 91.1759V94.585H59.9956ZM68.687 94.585V89.1304H69.525V94.585H68.687ZM69.1131 88.2213C68.9498 88.2213 68.8089 88.1657 68.6905 88.0544C68.5745 87.9432 68.5165 87.8094 68.5165 87.6531C68.5165 87.4969 68.5745 87.3631 68.6905 87.2519C68.8089 87.1406 68.9498 87.085 69.1131 87.085C69.2765 87.085 69.4161 87.1406 69.5321 87.2519C69.6505 87.3631 69.7097 87.4969 69.7097 87.6531C69.7097 87.8094 69.6505 87.9432 69.5321 88.0544C69.4161 88.1657 69.2765 88.2213 69.1131 88.2213ZM71.8981 91.3037V94.585H71.06V89.1304H71.8697V89.9827H71.9407C72.0685 89.7057 72.2627 89.4832 72.5231 89.3151C72.7835 89.1446 73.1197 89.0594 73.5316 89.0594C73.9009 89.0594 74.2241 89.1352 74.5011 89.2867C74.7781 89.4358 74.9935 89.6631 75.1474 89.9685C75.3013 90.2715 75.3782 90.655 75.3782 91.1191V94.585H74.5401V91.1759C74.5401 90.7474 74.4289 90.4136 74.2063 90.1744C73.9838 89.933 73.6784 89.8122 73.2901 89.8122C73.0226 89.8122 72.7835 89.8702 72.5728 89.9862C72.3645 90.1022 72.1999 90.2715 72.0792 90.4941C71.9585 90.7166 71.8981 90.9865 71.8981 91.3037ZM79.1966 94.6986C78.671 94.6986 78.2176 94.5826 77.8365 94.3506C77.4577 94.1162 77.1653 93.7895 76.9593 93.3705C76.7557 92.9491 76.6539 92.459 76.6539 91.9003C76.6539 91.3416 76.7557 90.8492 76.9593 90.423C77.1653 89.9945 77.4518 89.6607 77.8187 89.4216C78.188 89.1801 78.6189 89.0594 79.1113 89.0594C79.3954 89.0594 79.676 89.1067 79.9529 89.2014C80.2299 89.2961 80.4821 89.45 80.7093 89.6631C80.9366 89.8738 81.1177 90.1531 81.2527 90.5012C81.3876 90.8492 81.4551 91.2777 81.4551 91.7867V92.1418H77.2505V91.4173H80.6028C80.6028 91.1096 80.5413 90.835 80.4181 90.5935C80.2974 90.352 80.1246 90.1614 79.8997 90.0218C79.6771 89.8821 79.4144 89.8122 79.1113 89.8122C78.7775 89.8122 78.4887 89.8951 78.2449 90.0608C78.0034 90.2242 77.8175 90.4372 77.6873 90.7C77.5571 90.9628 77.492 91.2445 77.492 91.5452V92.0281C77.492 92.4401 77.563 92.7893 77.7051 93.0757C77.8495 93.3598 78.0495 93.5764 78.3052 93.7256C78.5609 93.8724 78.858 93.9458 79.1966 93.9458C79.4167 93.9458 79.6156 93.915 79.7931 93.8534C79.9731 93.7895 80.1281 93.6948 80.2583 93.5693C80.3886 93.4415 80.4892 93.2829 80.5602 93.0935L81.3699 93.3208C81.2846 93.5954 81.1414 93.8369 80.9402 94.0452C80.7389 94.2512 80.4904 94.4121 80.1944 94.5281C79.8985 94.6418 79.5659 94.6986 79.1966 94.6986Z" fill="#EBEEF2"/>
<path d="M116.508 47.1865H113.086C113.023 46.7438 112.896 46.3506 112.703 46.0068C112.51 45.6579 112.263 45.361 111.961 45.1162C111.659 44.8714 111.31 44.6839 110.914 44.5537C110.523 44.4235 110.099 44.3584 109.641 44.3584C108.813 44.3584 108.091 44.5641 107.477 44.9756C106.862 45.3818 106.385 45.9756 106.047 46.7568C105.708 47.5329 105.539 48.4756 105.539 49.585C105.539 50.7256 105.708 51.6839 106.047 52.46C106.391 53.236 106.87 53.8219 107.484 54.2178C108.099 54.6136 108.81 54.8115 109.617 54.8115C110.07 54.8115 110.49 54.7516 110.875 54.6318C111.266 54.512 111.612 54.3376 111.914 54.1084C112.216 53.874 112.466 53.5902 112.664 53.2568C112.867 52.9235 113.008 52.5433 113.086 52.1162L116.508 52.1318C116.419 52.8662 116.198 53.5745 115.844 54.2568C115.495 54.9339 115.023 55.5407 114.43 56.0771C113.841 56.6084 113.138 57.0303 112.32 57.3428C111.508 57.6501 110.589 57.8037 109.563 57.8037C108.135 57.8037 106.859 57.4808 105.734 56.835C104.615 56.1891 103.729 55.2542 103.078 54.0303C102.432 52.8063 102.109 51.3245 102.109 49.585C102.109 47.8402 102.438 46.3558 103.094 45.1318C103.75 43.9079 104.641 42.9756 105.766 42.335C106.891 41.6891 108.156 41.3662 109.563 41.3662C110.49 41.3662 111.349 41.4964 112.141 41.7568C112.938 42.0173 113.643 42.3975 114.258 42.8975C114.872 43.3923 115.372 43.999 115.758 44.7178C116.148 45.4365 116.398 46.2594 116.508 47.1865ZM124.293 57.8193C123.079 57.8193 122.03 57.5615 121.145 57.0459C120.264 56.5251 119.585 55.8011 119.105 54.874C118.626 53.9417 118.387 52.861 118.387 51.6318C118.387 50.3923 118.626 49.3089 119.105 48.3818C119.585 47.4495 120.264 46.7256 121.145 46.21C122.03 45.6891 123.079 45.4287 124.293 45.4287C125.507 45.4287 126.553 45.6891 127.434 46.21C128.319 46.7256 129.001 47.4495 129.48 48.3818C129.96 49.3089 130.199 50.3923 130.199 51.6318C130.199 52.861 129.96 53.9417 129.48 54.874C129.001 55.8011 128.319 56.5251 127.434 57.0459C126.553 57.5615 125.507 57.8193 124.293 57.8193ZM124.309 55.2412C124.861 55.2412 125.322 55.085 125.691 54.7725C126.061 54.4548 126.34 54.0225 126.527 53.4756C126.72 52.9287 126.816 52.3063 126.816 51.6084C126.816 50.9105 126.72 50.2881 126.527 49.7412C126.34 49.1943 126.061 48.762 125.691 48.4443C125.322 48.1266 124.861 47.9678 124.309 47.9678C123.751 47.9678 123.283 48.1266 122.902 48.4443C122.527 48.762 122.243 49.1943 122.051 49.7412C121.863 50.2881 121.77 50.9105 121.77 51.6084C121.77 52.3063 121.863 52.9287 122.051 53.4756C122.243 54.0225 122.527 54.4548 122.902 54.7725C123.283 55.085 123.751 55.2412 124.309 55.2412ZM132.363 57.585V45.585H135.535V47.7021H135.676C135.926 46.999 136.342 46.4443 136.926 46.0381C137.509 45.6318 138.207 45.4287 139.02 45.4287C139.842 45.4287 140.543 45.6344 141.121 46.0459C141.699 46.4521 142.085 47.0042 142.277 47.7021H142.402C142.647 47.0146 143.09 46.4652 143.73 46.0537C144.376 45.637 145.139 45.4287 146.02 45.4287C147.139 45.4287 148.048 45.7855 148.746 46.499C149.449 47.2074 149.801 48.2126 149.801 49.5146V57.585H146.48V50.1709C146.48 49.5042 146.303 49.0042 145.949 48.6709C145.595 48.3376 145.152 48.1709 144.621 48.1709C144.017 48.1709 143.546 48.3636 143.207 48.749C142.868 49.1292 142.699 49.6318 142.699 50.2568V57.585H139.473V50.1006C139.473 49.512 139.303 49.0433 138.965 48.6943C138.632 48.3454 138.191 48.1709 137.645 48.1709C137.275 48.1709 136.941 48.2646 136.645 48.4521C136.353 48.6344 136.121 48.8923 135.949 49.2256C135.777 49.5537 135.691 49.9391 135.691 50.3818V57.585H132.363ZM157.898 57.8193C156.664 57.8193 155.602 57.5693 154.711 57.0693C153.826 56.5641 153.143 55.8506 152.664 54.9287C152.185 54.0016 151.945 52.9053 151.945 51.6396C151.945 50.4053 152.185 49.3219 152.664 48.3896C153.143 47.4574 153.818 46.7308 154.688 46.21C155.563 45.6891 156.589 45.4287 157.766 45.4287C158.557 45.4287 159.294 45.5563 159.977 45.8115C160.664 46.0615 161.263 46.4391 161.773 46.9443C162.289 47.4495 162.69 48.085 162.977 48.8506C163.263 49.611 163.406 50.5016 163.406 51.5225V52.4365H153.273V50.374H160.273C160.273 49.8949 160.169 49.4704 159.961 49.1006C159.753 48.7308 159.464 48.4417 159.094 48.2334C158.729 48.0199 158.305 47.9131 157.82 47.9131C157.315 47.9131 156.867 48.0303 156.477 48.2646C156.091 48.4938 155.789 48.8037 155.57 49.1943C155.352 49.5798 155.24 50.0094 155.234 50.4834V52.4443C155.234 53.0381 155.344 53.5511 155.563 53.9834C155.786 54.4157 156.102 54.749 156.508 54.9834C156.914 55.2178 157.396 55.335 157.953 55.335C158.323 55.335 158.661 55.2829 158.969 55.1787C159.276 55.0745 159.539 54.9183 159.758 54.71C159.977 54.5016 160.143 54.2464 160.258 53.9443L163.336 54.1475C163.18 54.887 162.859 55.5329 162.375 56.085C161.896 56.6318 161.276 57.0589 160.516 57.3662C159.76 57.6683 158.888 57.8193 157.898 57.8193ZM177.053 45.585V48.085H169.826V45.585H177.053ZM171.467 42.71H174.795V53.8975C174.795 54.2048 174.842 54.4443 174.936 54.6162C175.029 54.7829 175.16 54.9001 175.326 54.9678C175.498 55.0355 175.696 55.0693 175.92 55.0693C176.076 55.0693 176.232 55.0563 176.389 55.0303C176.545 54.999 176.665 54.9756 176.748 54.96L177.271 57.4365C177.105 57.4886 176.87 57.5485 176.568 57.6162C176.266 57.6891 175.899 57.7334 175.467 57.749C174.665 57.7803 173.962 57.6735 173.357 57.4287C172.758 57.1839 172.292 56.8037 171.959 56.2881C171.626 55.7725 171.462 55.1214 171.467 54.335V42.71ZM182.643 57.8115C181.877 57.8115 181.195 57.6787 180.596 57.4131C179.997 57.1423 179.523 56.7438 179.174 56.2178C178.83 55.6865 178.658 55.0251 178.658 54.2334C178.658 53.5667 178.781 53.0068 179.025 52.5537C179.27 52.1006 179.604 51.736 180.025 51.46C180.447 51.1839 180.926 50.9756 181.463 50.835C182.005 50.6943 182.572 50.5954 183.166 50.5381C183.864 50.4652 184.426 50.3975 184.854 50.335C185.281 50.2673 185.59 50.1683 185.783 50.0381C185.976 49.9079 186.072 49.7152 186.072 49.46V49.4131C186.072 48.9183 185.916 48.5355 185.604 48.2646C185.296 47.9938 184.859 47.8584 184.291 47.8584C183.692 47.8584 183.215 47.9912 182.861 48.2568C182.507 48.5173 182.273 48.8454 182.158 49.2412L179.08 48.9912C179.236 48.262 179.544 47.6318 180.002 47.1006C180.46 46.5641 181.051 46.1527 181.775 45.8662C182.505 45.5745 183.348 45.4287 184.307 45.4287C184.973 45.4287 185.611 45.5068 186.221 45.6631C186.835 45.8193 187.38 46.0615 187.854 46.3896C188.333 46.7178 188.71 47.1396 188.986 47.6553C189.262 48.1657 189.4 48.7777 189.4 49.4912V57.585H186.244V55.9209H186.15C185.958 56.2959 185.7 56.6266 185.377 56.9131C185.054 57.1943 184.666 57.4157 184.213 57.5771C183.76 57.7334 183.236 57.8115 182.643 57.8115ZM183.596 55.5146C184.085 55.5146 184.518 55.4183 184.893 55.2256C185.268 55.0277 185.562 54.762 185.775 54.4287C185.989 54.0954 186.096 53.7178 186.096 53.2959V52.0225C185.992 52.0902 185.848 52.1527 185.666 52.21C185.489 52.262 185.288 52.3115 185.064 52.3584C184.84 52.4001 184.617 52.4391 184.393 52.4756C184.169 52.5068 183.965 52.5355 183.783 52.5615C183.393 52.6188 183.051 52.71 182.76 52.835C182.468 52.96 182.242 53.1292 182.08 53.3428C181.919 53.5511 181.838 53.8115 181.838 54.124C181.838 54.5771 182.002 54.9235 182.33 55.1631C182.663 55.3975 183.085 55.5146 183.596 55.5146ZM194.998 54.1318L195.006 50.1396H195.49L199.334 45.585H203.154L197.99 51.6162H197.201L194.998 54.1318ZM191.982 57.585V41.585H195.311V57.585H191.982ZM199.482 57.585L195.951 52.3584L198.17 50.0068L203.381 57.585H199.482ZM209.762 57.8193C208.527 57.8193 207.465 57.5693 206.574 57.0693C205.689 56.5641 205.007 55.8506 204.527 54.9287C204.048 54.0016 203.809 52.9053 203.809 51.6396C203.809 50.4053 204.048 49.3219 204.527 48.3896C205.007 47.4574 205.681 46.7308 206.551 46.21C207.426 45.6891 208.452 45.4287 209.629 45.4287C210.421 45.4287 211.158 45.5563 211.84 45.8115C212.527 46.0615 213.126 46.4391 213.637 46.9443C214.152 47.4495 214.553 48.085 214.84 48.8506C215.126 49.611 215.27 50.5016 215.27 51.5225V52.4365H205.137V50.374H212.137C212.137 49.8949 212.033 49.4704 211.824 49.1006C211.616 48.7308 211.327 48.4417 210.957 48.2334C210.592 48.0199 210.168 47.9131 209.684 47.9131C209.178 47.9131 208.73 48.0303 208.34 48.2646C207.954 48.4938 207.652 48.8037 207.434 49.1943C207.215 49.5798 207.103 50.0094 207.098 50.4834V52.4443C207.098 53.0381 207.207 53.5511 207.426 53.9834C207.65 54.4157 207.965 54.749 208.371 54.9834C208.777 55.2178 209.259 55.335 209.816 55.335C210.186 55.335 210.525 55.2829 210.832 55.1787C211.139 55.0745 211.402 54.9183 211.621 54.71C211.84 54.5016 212.007 54.2464 212.121 53.9443L215.199 54.1475C215.043 54.887 214.723 55.5329 214.238 56.085C213.759 56.6318 213.139 57.0589 212.379 57.3662C211.624 57.6683 210.751 57.8193 209.762 57.8193ZM224.588 62.085C224.166 62.085 223.77 62.0511 223.4 61.9834C223.036 61.9209 222.734 61.8402 222.494 61.7412L223.244 59.2568C223.635 59.3766 223.986 59.4417 224.299 59.4521C224.617 59.4626 224.89 59.3896 225.119 59.2334C225.354 59.0771 225.544 58.8115 225.689 58.4365L225.885 57.9287L221.58 45.585H225.08L227.564 54.3975H227.689L230.197 45.585H233.721L229.057 58.8818C228.833 59.5277 228.528 60.0902 228.143 60.5693C227.762 61.0537 227.281 61.4261 226.697 61.6865C226.114 61.9521 225.411 62.085 224.588 62.085ZM240.459 57.8193C239.245 57.8193 238.196 57.5615 237.311 57.0459C236.43 56.5251 235.751 55.8011 235.271 54.874C234.792 53.9417 234.553 52.861 234.553 51.6318C234.553 50.3923 234.792 49.3089 235.271 48.3818C235.751 47.4495 236.43 46.7256 237.311 46.21C238.196 45.6891 239.245 45.4287 240.459 45.4287C241.673 45.4287 242.719 45.6891 243.6 46.21C244.485 46.7256 245.167 47.4495 245.646 48.3818C246.126 49.3089 246.365 50.3923 246.365 51.6318C246.365 52.861 246.126 53.9417 245.646 54.874C245.167 55.8011 244.485 56.5251 243.6 57.0459C242.719 57.5615 241.673 57.8193 240.459 57.8193ZM240.475 55.2412C241.027 55.2412 241.488 55.085 241.857 54.7725C242.227 54.4548 242.506 54.0225 242.693 53.4756C242.886 52.9287 242.982 52.3063 242.982 51.6084C242.982 50.9105 242.886 50.2881 242.693 49.7412C242.506 49.1943 242.227 48.762 241.857 48.4443C241.488 48.1266 241.027 47.9678 240.475 47.9678C239.917 47.9678 239.449 48.1266 239.068 48.4443C238.693 48.762 238.41 49.1943 238.217 49.7412C238.029 50.2881 237.936 50.9105 237.936 51.6084C237.936 52.3063 238.029 52.9287 238.217 53.4756C238.41 54.0225 238.693 54.4548 239.068 54.7725C239.449 55.085 239.917 55.2412 240.475 55.2412ZM256.225 52.4756V45.585H259.553V57.585H256.357V55.4053H256.232C255.962 56.1084 255.511 56.6735 254.881 57.1006C254.256 57.5277 253.493 57.7412 252.592 57.7412C251.79 57.7412 251.084 57.5589 250.475 57.1943C249.865 56.8298 249.389 56.3115 249.045 55.6396C248.706 54.9678 248.535 54.1631 248.529 53.2256V45.585H251.857V52.6318C251.863 53.3402 252.053 53.9001 252.428 54.3115C252.803 54.723 253.305 54.9287 253.936 54.9287C254.337 54.9287 254.712 54.8376 255.061 54.6553C255.41 54.4678 255.691 54.1917 255.904 53.8271C256.123 53.4626 256.23 53.012 256.225 52.4756ZM262.215 57.585V45.585H265.441V47.6787H265.566C265.785 46.9339 266.152 46.3714 266.668 45.9912C267.184 45.6058 267.777 45.4131 268.449 45.4131C268.616 45.4131 268.796 45.4235 268.988 45.4443C269.181 45.4652 269.35 45.4938 269.496 45.5303V48.4834C269.34 48.4365 269.124 48.3949 268.848 48.3584C268.572 48.3219 268.319 48.3037 268.09 48.3037C267.6 48.3037 267.163 48.4105 266.777 48.624C266.397 48.8324 266.095 49.124 265.871 49.499C265.652 49.874 265.543 50.3063 265.543 50.7959V57.585H262.215ZM282.762 45.585V48.085H275.355V45.585H282.762ZM277.051 57.585V44.7178C277.051 43.848 277.22 43.1266 277.559 42.5537C277.902 41.9808 278.371 41.5511 278.965 41.2646C279.559 40.9782 280.233 40.835 280.988 40.835C281.499 40.835 281.965 40.874 282.387 40.9521C282.814 41.0303 283.132 41.1006 283.34 41.1631L282.746 43.6631C282.616 43.6214 282.454 43.5824 282.262 43.5459C282.074 43.5094 281.882 43.4912 281.684 43.4912C281.194 43.4912 280.853 43.6058 280.66 43.835C280.467 44.0589 280.371 44.374 280.371 44.7803V57.585H277.051ZM284.795 57.585V45.585H288.123V57.585H284.795ZM286.467 44.0381C285.972 44.0381 285.548 43.874 285.193 43.5459C284.844 43.2126 284.67 42.8141 284.67 42.3506C284.67 41.8923 284.844 41.499 285.193 41.1709C285.548 40.8376 285.972 40.6709 286.467 40.6709C286.962 40.6709 287.383 40.8376 287.732 41.1709C288.087 41.499 288.264 41.8923 288.264 42.3506C288.264 42.8141 288.087 43.2126 287.732 43.5459C287.383 43.874 286.962 44.0381 286.467 44.0381ZM290.789 57.585V45.585H294.016V47.6787H294.141C294.359 46.9339 294.727 46.3714 295.242 45.9912C295.758 45.6058 296.352 45.4131 297.023 45.4131C297.19 45.4131 297.37 45.4235 297.563 45.4443C297.755 45.4652 297.924 45.4938 298.07 45.5303V48.4834C297.914 48.4365 297.698 48.3949 297.422 48.3584C297.146 48.3219 296.893 48.3037 296.664 48.3037C296.174 48.3037 295.737 48.4105 295.352 48.624C294.971 48.8324 294.669 49.124 294.445 49.499C294.227 49.874 294.117 50.3063 294.117 50.7959V57.585H290.789ZM309.775 49.0068L306.729 49.1943C306.676 48.9339 306.564 48.6995 306.393 48.4912C306.221 48.2777 305.994 48.1084 305.713 47.9834C305.437 47.8532 305.106 47.7881 304.721 47.7881C304.205 47.7881 303.77 47.8975 303.416 48.1162C303.062 48.3298 302.885 48.6162 302.885 48.9756C302.885 49.262 302.999 49.5042 303.229 49.7021C303.458 49.9001 303.851 50.0589 304.408 50.1787L306.58 50.6162C307.747 50.8558 308.617 51.2412 309.189 51.7725C309.762 52.3037 310.049 53.0016 310.049 53.8662C310.049 54.6527 309.817 55.3428 309.354 55.9365C308.895 56.5303 308.265 56.9938 307.463 57.3271C306.666 57.6553 305.747 57.8193 304.705 57.8193C303.117 57.8193 301.851 57.4886 300.908 56.8271C299.971 56.1605 299.421 55.2542 299.26 54.1084L302.533 53.9365C302.632 54.4209 302.872 54.7907 303.252 55.0459C303.632 55.2959 304.119 55.4209 304.713 55.4209C305.296 55.4209 305.765 55.3089 306.119 55.085C306.479 54.8558 306.661 54.5615 306.666 54.2021C306.661 53.9001 306.533 53.6527 306.283 53.46C306.033 53.262 305.648 53.111 305.127 53.0068L303.049 52.5928C301.877 52.3584 301.005 51.9521 300.432 51.374C299.864 50.7959 299.58 50.0589 299.58 49.1631C299.58 48.3923 299.788 47.7282 300.205 47.1709C300.627 46.6136 301.218 46.1839 301.979 45.8818C302.744 45.5798 303.64 45.4287 304.666 45.4287C306.182 45.4287 307.374 45.749 308.244 46.3896C309.119 47.0303 309.63 47.9027 309.775 49.0068ZM318.527 45.585V48.085H311.301V45.585H318.527ZM312.941 42.71H316.27V53.8975C316.27 54.2048 316.316 54.4443 316.41 54.6162C316.504 54.7829 316.634 54.9001 316.801 54.9678C316.973 55.0355 317.171 55.0693 317.395 55.0693C317.551 55.0693 317.707 55.0563 317.863 55.0303C318.02 54.999 318.139 54.9756 318.223 54.96L318.746 57.4365C318.579 57.4886 318.345 57.5485 318.043 57.6162C317.741 57.6891 317.374 57.7334 316.941 57.749C316.139 57.7803 315.436 57.6735 314.832 57.4287C314.233 57.1839 313.767 56.8037 313.434 56.2881C313.1 55.7725 312.936 55.1214 312.941 54.335V42.71ZM108.781 72.585V75.085H101.375V72.585H108.781ZM103.07 84.585V71.7178C103.07 70.848 103.24 70.1266 103.578 69.5537C103.922 68.9808 104.391 68.5511 104.984 68.2646C105.578 67.9782 106.253 67.835 107.008 67.835C107.518 67.835 107.984 67.874 108.406 67.9521C108.833 68.0303 109.151 68.1006 109.359 68.1631L108.766 70.6631C108.635 70.6214 108.474 70.5824 108.281 70.5459C108.094 70.5094 107.901 70.4912 107.703 70.4912C107.214 70.4912 106.872 70.6058 106.68 70.835C106.487 71.0589 106.391 71.374 106.391 71.7803V84.585H103.07ZM110.814 84.585V72.585H114.041V74.6787H114.166C114.385 73.9339 114.752 73.3714 115.268 72.9912C115.783 72.6058 116.377 72.4131 117.049 72.4131C117.215 72.4131 117.395 72.4235 117.588 72.4443C117.781 72.4652 117.95 72.4938 118.096 72.5303V75.4834C117.939 75.4365 117.723 75.3949 117.447 75.3584C117.171 75.3219 116.919 75.3037 116.689 75.3037C116.2 75.3037 115.762 75.4105 115.377 75.624C114.997 75.8324 114.695 76.124 114.471 76.499C114.252 76.874 114.143 77.3063 114.143 77.7959V84.585H110.814ZM124.727 84.8193C123.492 84.8193 122.43 84.5693 121.539 84.0693C120.654 83.5641 119.971 82.8506 119.492 81.9287C119.013 81.0016 118.773 79.9053 118.773 78.6396C118.773 77.4053 119.013 76.3219 119.492 75.3896C119.971 74.4574 120.646 73.7308 121.516 73.21C122.391 72.6891 123.417 72.4287 124.594 72.4287C125.385 72.4287 126.122 72.5563 126.805 72.8115C127.492 73.0615 128.091 73.4391 128.602 73.9443C129.117 74.4495 129.518 75.085 129.805 75.8506C130.091 76.611 130.234 77.5016 130.234 78.5225V79.4365H120.102V77.374H127.102C127.102 76.8949 126.997 76.4704 126.789 76.1006C126.581 75.7308 126.292 75.4417 125.922 75.2334C125.557 75.0199 125.133 74.9131 124.648 74.9131C124.143 74.9131 123.695 75.0303 123.305 75.2646C122.919 75.4938 122.617 75.8037 122.398 76.1943C122.18 76.5798 122.068 77.0094 122.063 77.4834V79.4443C122.063 80.0381 122.172 80.5511 122.391 80.9834C122.615 81.4157 122.93 81.749 123.336 81.9834C123.742 82.2178 124.224 82.335 124.781 82.335C125.151 82.335 125.49 82.2829 125.797 82.1787C126.104 82.0745 126.367 81.9183 126.586 81.71C126.805 81.5016 126.971 81.2464 127.086 80.9443L130.164 81.1475C130.008 81.887 129.688 82.5329 129.203 83.085C128.724 83.6318 128.104 84.0589 127.344 84.3662C126.589 84.6683 125.716 84.8193 124.727 84.8193ZM137.875 84.8193C136.641 84.8193 135.578 84.5693 134.688 84.0693C133.802 83.5641 133.12 82.8506 132.641 81.9287C132.161 81.0016 131.922 79.9053 131.922 78.6396C131.922 77.4053 132.161 76.3219 132.641 75.3896C133.12 74.4574 133.794 73.7308 134.664 73.21C135.539 72.6891 136.565 72.4287 137.742 72.4287C138.534 72.4287 139.271 72.5563 139.953 72.8115C140.641 73.0615 141.24 73.4391 141.75 73.9443C142.266 74.4495 142.667 75.085 142.953 75.8506C143.24 76.611 143.383 77.5016 143.383 78.5225V79.4365H133.25V77.374H140.25C140.25 76.8949 140.146 76.4704 139.938 76.1006C139.729 75.7308 139.44 75.4417 139.07 75.2334C138.706 75.0199 138.281 74.9131 137.797 74.9131C137.292 74.9131 136.844 75.0303 136.453 75.2646C136.068 75.4938 135.766 75.8037 135.547 76.1943C135.328 76.5798 135.216 77.0094 135.211 77.4834V79.4443C135.211 80.0381 135.32 80.5511 135.539 80.9834C135.763 81.4157 136.078 81.749 136.484 81.9834C136.891 82.2178 137.372 82.335 137.93 82.335C138.299 82.335 138.638 82.2829 138.945 82.1787C139.253 82.0745 139.516 81.9183 139.734 81.71C139.953 81.5016 140.12 81.2464 140.234 80.9443L143.313 81.1475C143.156 81.887 142.836 82.5329 142.352 83.085C141.872 83.6318 141.253 84.0589 140.492 84.3662C139.737 84.6683 138.865 84.8193 137.875 84.8193ZM156.115 84.8193C154.881 84.8193 153.818 84.5693 152.928 84.0693C152.042 83.5641 151.36 82.8506 150.881 81.9287C150.402 81.0016 150.162 79.9053 150.162 78.6396C150.162 77.4053 150.402 76.3219 150.881 75.3896C151.36 74.4574 152.035 73.7308 152.904 73.21C153.779 72.6891 154.805 72.4287 155.982 72.4287C156.774 72.4287 157.511 72.5563 158.193 72.8115C158.881 73.0615 159.48 73.4391 159.99 73.9443C160.506 74.4495 160.907 75.085 161.193 75.8506C161.48 76.611 161.623 77.5016 161.623 78.5225V79.4365H151.49V77.374H158.49C158.49 76.8949 158.386 76.4704 158.178 76.1006C157.969 75.7308 157.68 75.4417 157.311 75.2334C156.946 75.0199 156.521 74.9131 156.037 74.9131C155.532 74.9131 155.084 75.0303 154.693 75.2646C154.308 75.4938 154.006 75.8037 153.787 76.1943C153.568 76.5798 153.456 77.0094 153.451 77.4834V79.4443C153.451 80.0381 153.561 80.5511 153.779 80.9834C154.003 81.4157 154.318 81.749 154.725 81.9834C155.131 82.2178 155.613 82.335 156.17 82.335C156.54 82.335 156.878 82.2829 157.186 82.1787C157.493 82.0745 157.756 81.9183 157.975 81.71C158.193 81.5016 158.36 81.2464 158.475 80.9443L161.553 81.1475C161.396 81.887 161.076 82.5329 160.592 83.085C160.113 83.6318 159.493 84.0589 158.732 84.3662C157.977 84.6683 157.105 84.8193 156.115 84.8193ZM166.361 72.585L168.564 76.7803L170.822 72.585H174.236L170.76 78.585L174.33 84.585H170.932L168.564 80.4365L166.236 84.585H162.799L166.361 78.585L162.924 72.585H166.361ZM179.57 84.8115C178.805 84.8115 178.122 84.6787 177.523 84.4131C176.924 84.1423 176.451 83.7438 176.102 83.2178C175.758 82.6865 175.586 82.0251 175.586 81.2334C175.586 80.5667 175.708 80.0068 175.953 79.5537C176.198 79.1006 176.531 78.736 176.953 78.46C177.375 78.1839 177.854 77.9756 178.391 77.835C178.932 77.6943 179.5 77.5954 180.094 77.5381C180.792 77.4652 181.354 77.3975 181.781 77.335C182.208 77.2673 182.518 77.1683 182.711 77.0381C182.904 76.9079 183 76.7152 183 76.46V76.4131C183 75.9183 182.844 75.5355 182.531 75.2646C182.224 74.9938 181.786 74.8584 181.219 74.8584C180.62 74.8584 180.143 74.9912 179.789 75.2568C179.435 75.5173 179.201 75.8454 179.086 76.2412L176.008 75.9912C176.164 75.262 176.471 74.6318 176.93 74.1006C177.388 73.5641 177.979 73.1527 178.703 72.8662C179.432 72.5745 180.276 72.4287 181.234 72.4287C181.901 72.4287 182.539 72.5068 183.148 72.6631C183.763 72.8193 184.307 73.0615 184.781 73.3896C185.26 73.7178 185.638 74.1396 185.914 74.6553C186.19 75.1657 186.328 75.7777 186.328 76.4912V84.585H183.172V82.9209H183.078C182.885 83.2959 182.628 83.6266 182.305 83.9131C181.982 84.1943 181.594 84.4157 181.141 84.5771C180.688 84.7334 180.164 84.8115 179.57 84.8115ZM180.523 82.5146C181.013 82.5146 181.445 82.4183 181.82 82.2256C182.195 82.0277 182.49 81.762 182.703 81.4287C182.917 81.0954 183.023 80.7178 183.023 80.2959V79.0225C182.919 79.0902 182.776 79.1527 182.594 79.21C182.417 79.262 182.216 79.3115 181.992 79.3584C181.768 79.4001 181.544 79.4391 181.32 79.4756C181.096 79.5068 180.893 79.5355 180.711 79.5615C180.32 79.6188 179.979 79.71 179.688 79.835C179.396 79.96 179.169 80.1292 179.008 80.3428C178.846 80.5511 178.766 80.8115 178.766 81.124C178.766 81.5771 178.93 81.9235 179.258 82.1631C179.591 82.3975 180.013 82.5146 180.523 82.5146ZM188.91 84.585V72.585H192.082V74.7021H192.223C192.473 73.999 192.889 73.4443 193.473 73.0381C194.056 72.6318 194.754 72.4287 195.566 72.4287C196.389 72.4287 197.09 72.6344 197.668 73.0459C198.246 73.4521 198.632 74.0042 198.824 74.7021H198.949C199.194 74.0146 199.637 73.4652 200.277 73.0537C200.923 72.637 201.686 72.4287 202.566 72.4287C203.686 72.4287 204.595 72.7855 205.293 73.499C205.996 74.2074 206.348 75.2126 206.348 76.5146V84.585H203.027V77.1709C203.027 76.5042 202.85 76.0042 202.496 75.6709C202.142 75.3376 201.699 75.1709 201.168 75.1709C200.564 75.1709 200.092 75.3636 199.754 75.749C199.415 76.1292 199.246 76.6318 199.246 77.2568V84.585H196.02V77.1006C196.02 76.512 195.85 76.0433 195.512 75.6943C195.178 75.3454 194.738 75.1709 194.191 75.1709C193.822 75.1709 193.488 75.2646 193.191 75.4521C192.9 75.6344 192.668 75.8923 192.496 76.2256C192.324 76.5537 192.238 76.9391 192.238 77.3818V84.585H188.91ZM216.436 84.585L213.17 72.585H216.537L218.396 80.6475H218.506L220.443 72.585H223.748L225.717 80.6006H225.818L227.646 72.585H231.006L227.748 84.585H224.225L222.162 77.0381H222.014L219.951 84.585H216.436ZM232.781 84.585V72.585H236.109V84.585H232.781ZM234.453 71.0381C233.958 71.0381 233.534 70.874 233.18 70.5459C232.831 70.2126 232.656 69.8141 232.656 69.3506C232.656 68.8923 232.831 68.499 233.18 68.1709C233.534 67.8376 233.958 67.6709 234.453 67.6709C234.948 67.6709 235.37 67.8376 235.719 68.1709C236.073 68.499 236.25 68.8923 236.25 69.3506C236.25 69.8141 236.073 70.2126 235.719 70.5459C235.37 70.874 234.948 71.0381 234.453 71.0381ZM245.158 72.585V75.085H237.932V72.585H245.158ZM239.572 69.71H242.9V80.8975C242.9 81.2048 242.947 81.4443 243.041 81.6162C243.135 81.7829 243.265 81.9001 243.432 81.9678C243.604 82.0355 243.801 82.0693 244.025 82.0693C244.182 82.0693 244.338 82.0563 244.494 82.0303C244.65 81.999 244.77 81.9756 244.854 81.96L245.377 84.4365C245.21 84.4886 244.976 84.5485 244.674 84.6162C244.372 84.6891 244.005 84.7334 243.572 84.749C242.77 84.7803 242.067 84.6735 241.463 84.4287C240.864 84.1839 240.398 83.8037 240.064 83.2881C239.731 82.7725 239.567 82.1214 239.572 81.335V69.71ZM250.912 77.6475V84.585H247.584V68.585H250.818V74.7021H250.959C251.23 73.9938 251.667 73.4391 252.271 73.0381C252.876 72.6318 253.633 72.4287 254.545 72.4287C255.378 72.4287 256.105 72.611 256.725 72.9756C257.35 73.335 257.834 73.8532 258.178 74.5303C258.527 75.2021 258.699 76.0068 258.693 76.9443V84.585H255.365V77.5381C255.37 76.7985 255.183 76.223 254.803 75.8115C254.428 75.4001 253.902 75.1943 253.225 75.1943C252.771 75.1943 252.37 75.2907 252.021 75.4834C251.678 75.6761 251.407 75.9574 251.209 76.3271C251.016 76.6917 250.917 77.1318 250.912 77.6475ZM274.1 79.4756V72.585H277.428V84.585H274.232V82.4053H274.107C273.837 83.1084 273.386 83.6735 272.756 84.1006C272.131 84.5277 271.368 84.7412 270.467 84.7412C269.665 84.7412 268.959 84.5589 268.35 84.1943C267.74 83.8298 267.264 83.3115 266.92 82.6396C266.581 81.9678 266.41 81.1631 266.404 80.2256V72.585H269.732V79.6318C269.738 80.3402 269.928 80.9001 270.303 81.3115C270.678 81.723 271.18 81.9287 271.811 81.9287C272.212 81.9287 272.587 81.8376 272.936 81.6553C273.285 81.4678 273.566 81.1917 273.779 80.8271C273.998 80.4626 274.105 80.012 274.1 79.4756ZM290.074 76.0068L287.027 76.1943C286.975 75.9339 286.863 75.6995 286.691 75.4912C286.52 75.2777 286.293 75.1084 286.012 74.9834C285.736 74.8532 285.405 74.7881 285.02 74.7881C284.504 74.7881 284.069 74.8975 283.715 75.1162C283.361 75.3298 283.184 75.6162 283.184 75.9756C283.184 76.262 283.298 76.5042 283.527 76.7021C283.757 76.9001 284.15 77.0589 284.707 77.1787L286.879 77.6162C288.046 77.8558 288.915 78.2412 289.488 78.7725C290.061 79.3037 290.348 80.0016 290.348 80.8662C290.348 81.6527 290.116 82.3428 289.652 82.9365C289.194 83.5303 288.564 83.9938 287.762 84.3271C286.965 84.6553 286.046 84.8193 285.004 84.8193C283.415 84.8193 282.15 84.4886 281.207 83.8271C280.27 83.1605 279.72 82.2542 279.559 81.1084L282.832 80.9365C282.931 81.4209 283.171 81.7907 283.551 82.0459C283.931 82.2959 284.418 82.4209 285.012 82.4209C285.595 82.4209 286.064 82.3089 286.418 82.085C286.777 81.8558 286.96 81.5615 286.965 81.2021C286.96 80.9001 286.832 80.6527 286.582 80.46C286.332 80.262 285.947 80.111 285.426 80.0068L283.348 79.5928C282.176 79.3584 281.303 78.9521 280.73 78.374C280.163 77.7959 279.879 77.0589 279.879 76.1631C279.879 75.3923 280.087 74.7282 280.504 74.1709C280.926 73.6136 281.517 73.1839 282.277 72.8818C283.043 72.5798 283.939 72.4287 284.965 72.4287C286.48 72.4287 287.673 72.749 288.543 73.3896C289.418 74.0303 289.928 74.9027 290.074 76.0068ZM296.42 68.585L296.115 79.7881H293.256L292.943 68.585H296.42ZM294.686 84.7881C294.17 84.7881 293.727 84.6058 293.357 84.2412C292.988 83.8714 292.805 83.4287 292.811 82.9131C292.805 82.4027 292.988 81.9652 293.357 81.6006C293.727 81.236 294.17 81.0537 294.686 81.0537C295.18 81.0537 295.615 81.236 295.99 81.6006C296.365 81.9652 296.555 82.4027 296.561 82.9131C296.555 83.2568 296.464 83.5719 296.287 83.8584C296.115 84.1396 295.889 84.3662 295.607 84.5381C295.326 84.7048 295.019 84.7881 294.686 84.7881Z" fill="white"/>
</g>
<defs>
<linearGradient id="paint0_linear_1_7311" x1="190" y1="0.584961" x2="190" y2="130.585" gradientUnits="userSpaceOnUse">
<stop stop-color="#9D81FF"/>
<stop offset="1" stop-color="#59459E"/>
</linearGradient>
<clipPath id="clip0_1_7311">
<rect y="0.584961" width="380" height="130" rx="10" fill="white"/>
</clipPath>
</defs>
</svg>
