<svg width="28" height="28" viewBox="0 0 28 28" fill="none" xmlns="http://www.w3.org/2000/svg">
<path fill-rule="evenodd" clip-rule="evenodd" d="M19.7626 3.5C21.3271 3.5 22.8321 4.11833 23.9392 5.22783C25.0476 6.335 25.6671 7.82833 25.6671 9.39167V18.6083C25.6671 21.8633 23.0187 24.5 19.7626 24.5H8.23707C4.98091 24.5 2.33374 21.8633 2.33374 18.6083V9.39167C2.33374 6.13667 4.96924 3.5 8.23707 3.5H19.7626ZM21.6187 11.13L21.7121 11.0367C21.9909 10.6983 21.9909 10.2083 21.6992 9.87C21.5371 9.69617 21.3142 9.59 21.0821 9.56667C20.8371 9.55383 20.6037 9.63667 20.4276 9.8L15.1671 14C14.4904 14.5612 13.5209 14.5612 12.8337 14L7.58374 9.8C7.22091 9.53167 6.71924 9.56667 6.41707 9.88167C6.10207 10.1967 6.06707 10.6983 6.33424 11.0483L6.48707 11.2L11.7954 15.3417C12.4487 15.855 13.2409 16.135 14.0704 16.135C14.8976 16.135 15.7037 15.855 16.3559 15.3417L21.6187 11.13Z" fill="#9E9E9E"/>
</svg>
