<svg width="25" height="28" viewBox="0 0 25 28" fill="none" xmlns="http://www.w3.org/2000/svg">
<path d="M12.21 19.2688H12.7054C15.4323 19.2688 17.7433 17.5233 18.5571 15.1029C18.6752 14.7506 18.4062 14.3874 18.0302 14.3874H16.5041C16.0197 14.3874 15.6258 13.9998 15.6258 13.5214C15.6258 13.0417 16.0197 12.6527 16.5041 12.6527H17.9835C18.4734 12.6527 18.8714 12.2611 18.8714 11.7786C18.8714 11.2935 18.4734 10.9018 17.9835 10.9018H16.5041C16.0197 10.9018 15.6258 10.5129 15.6258 10.0345C15.6258 9.55475 16.0197 9.16581 16.5041 9.16581H17.9835C18.4734 9.16581 18.8714 8.77415 18.8714 8.29035C18.8714 7.80655 18.4734 7.41489 17.9835 7.41489H16.5041C16.0197 7.41489 15.6258 7.02731 15.6258 6.54757V6.54621C15.6258 6.06783 16.0197 5.68024 16.5041 5.68024H18.1084C18.4762 5.68024 18.741 5.33196 18.6409 4.98096C17.9121 2.421 15.5311 0.54541 12.7054 0.54541H12.21C8.80523 0.54541 6.04544 3.27071 6.04544 6.63295V13.1826C6.04544 16.5435 8.80523 19.2688 12.21 19.2688Z" fill="white"/>
<path d="M23.3474 10.5909C22.5898 10.5909 21.975 11.1967 21.975 11.9461C21.975 17.0078 17.8045 21.1262 12.6787 21.1262C7.55165 21.1262 3.38108 17.0078 3.38108 11.9461C3.38108 11.1967 2.76627 10.5909 2.00873 10.5909C1.25119 10.5909 0.636383 11.1967 0.636383 11.9461C0.636383 18.0432 5.3106 23.0777 11.3064 23.754V26.482C11.3064 27.23 11.9198 27.8372 12.6787 27.8372C13.4363 27.8372 14.0511 27.23 14.0511 26.482V23.754C20.0455 23.0777 24.7197 18.0432 24.7197 11.9461C24.7197 11.1967 24.1049 10.5909 23.3474 10.5909Z" fill="white"/>
</svg>
