<svg width="426" height="160" viewBox="0 0 426 160" fill="none" xmlns="http://www.w3.org/2000/svg">
<g filter="url(#filter0_d_1_10100)">
<rect x="20" y="16" width="382" height="112" rx="10" fill="#9D81FF" shape-rendering="crispEdges"/>
<circle cx="63.5" cy="110.5" r="1.5" fill="white"/>
<circle cx="90.5" cy="108.5" r="0.5" fill="white"/>
<circle cx="40" cy="91" r="2" fill="white"/>
<circle cx="78.5" cy="72.5" r="31.5" fill="white"/>
<circle cx="109" cy="103" r="1" fill="white"/>
<circle cx="112" cy="81" r="1" fill="white"/>
<circle cx="36.5" cy="65.5" r="0.5" fill="white"/>
<path d="M85.8912 75.0936C85.5459 75.4283 85.3872 75.9123 85.4659 76.3869L86.6512 82.9469C86.7512 83.5029 86.5165 84.0656 86.0512 84.387C85.5952 84.7203 84.9885 84.7603 84.4912 84.4936L78.5858 81.4136C78.3805 81.3043 78.1525 81.2456 77.9192 81.239H77.5578C77.4325 81.2576 77.3099 81.2976 77.1979 81.3589L71.2912 84.4536C70.9992 84.6003 70.6685 84.6523 70.3445 84.6003C69.5552 84.451 69.0285 83.699 69.1579 82.9056L70.3445 76.3456C70.4232 75.867 70.2645 75.3803 69.9192 75.0403L65.1045 70.3736C64.7019 69.983 64.5619 69.3963 64.7459 68.867C64.9245 68.339 65.3805 67.9536 65.9312 67.867L72.5578 66.9056C73.0619 66.8536 73.5045 66.547 73.7312 66.0936L76.6512 60.107C76.7205 59.9736 76.8099 59.851 76.9179 59.747L77.0378 59.6536C77.1005 59.5843 77.1725 59.527 77.2525 59.4803L77.3979 59.427L77.6245 59.3336H78.1859C78.6872 59.3856 79.1285 59.6856 79.3592 60.1336L82.3179 66.0936C82.5312 66.5296 82.9459 66.8323 83.4245 66.9056L90.0512 67.867C90.6112 67.947 91.0792 68.3336 91.2645 68.867C91.4392 69.4016 91.2885 69.9883 90.8779 70.3736L85.8912 75.0936Z" fill="url(#paint0_linear_1_10100)"/>
<circle cx="115.5" cy="44.5" r="3.5" fill="white"/>
<circle cx="83" cy="34" r="1" fill="white"/>
<circle cx="44.5" cy="36.5" r="4.5" fill="white"/>
<path d="M145.249 42.4545H148.324V51.9006C148.324 52.9612 148.071 53.8892 147.564 54.6847C147.062 55.4801 146.359 56.1004 145.455 56.5455C144.55 56.9858 143.497 57.206 142.294 57.206C141.087 57.206 140.031 56.9858 139.126 56.5455C138.222 56.1004 137.519 55.4801 137.017 54.6847C136.515 53.8892 136.264 52.9612 136.264 51.9006V42.4545H139.339V51.6378C139.339 52.1918 139.46 52.6842 139.702 53.1151C139.948 53.5459 140.294 53.8845 140.739 54.1307C141.184 54.3769 141.702 54.5 142.294 54.5C142.891 54.5 143.409 54.3769 143.849 54.1307C144.295 53.8845 144.638 53.5459 144.879 53.1151C145.125 52.6842 145.249 52.1918 145.249 51.6378V42.4545ZM150.797 61.0909V46.0909H153.78V47.9233H153.915C154.048 47.6297 154.239 47.3314 154.49 47.0284C154.746 46.7206 155.078 46.465 155.485 46.2614C155.897 46.053 156.408 45.9489 157.019 45.9489C157.814 45.9489 158.548 46.1572 159.221 46.5739C159.893 46.9858 160.43 47.6084 160.833 48.4418C161.235 49.2704 161.436 50.3097 161.436 51.5597C161.436 52.7765 161.24 53.804 160.847 54.642C160.459 55.4754 159.928 56.1075 159.256 56.5384C158.588 56.9645 157.84 57.1776 157.012 57.1776C156.425 57.1776 155.925 57.0805 155.513 56.8864C155.106 56.6922 154.772 56.4484 154.512 56.1548C154.251 55.8565 154.052 55.5559 153.915 55.2528H153.823V61.0909H150.797ZM153.759 51.5455C153.759 52.1941 153.849 52.7599 154.029 53.2429C154.209 53.7259 154.469 54.1023 154.81 54.3722C155.151 54.6373 155.565 54.7699 156.053 54.7699C156.545 54.7699 156.962 54.6349 157.303 54.3651C157.644 54.0904 157.902 53.7116 158.077 53.2287C158.257 52.741 158.347 52.1799 158.347 51.5455C158.347 50.9157 158.259 50.3617 158.084 49.8835C157.909 49.4053 157.651 49.0312 157.31 48.7614C156.969 48.4915 156.55 48.3565 156.053 48.3565C155.56 48.3565 155.144 48.4867 154.803 48.7472C154.467 49.0076 154.209 49.3769 154.029 49.8551C153.849 50.3333 153.759 50.8968 153.759 51.5455ZM168.368 61.3182C167.388 61.3182 166.548 61.1832 165.847 60.9134C165.151 60.6482 164.597 60.286 164.185 59.8267C163.773 59.3674 163.506 58.8513 163.382 58.2784L166.181 57.902C166.266 58.1198 166.401 58.3234 166.586 58.5128C166.77 58.7022 167.014 58.8537 167.317 58.9673C167.625 59.0857 167.999 59.1449 168.439 59.1449C169.097 59.1449 169.64 58.9839 170.066 58.6619C170.497 58.3447 170.712 57.812 170.712 57.0639V55.0682H170.584C170.452 55.3712 170.253 55.6577 169.988 55.9276C169.722 56.1974 169.382 56.4176 168.965 56.5881C168.548 56.7585 168.051 56.8438 167.473 56.8438C166.654 56.8438 165.908 56.6544 165.236 56.2756C164.569 55.892 164.036 55.3073 163.638 54.5213C163.245 53.7306 163.049 52.7315 163.049 51.5241C163.049 50.2884 163.25 49.2562 163.652 48.4276C164.055 47.599 164.59 46.9787 165.257 46.5668C165.93 46.1548 166.666 45.9489 167.466 45.9489C168.077 45.9489 168.588 46.053 169 46.2614C169.412 46.465 169.744 46.7206 169.995 47.0284C170.25 47.3314 170.447 47.6297 170.584 47.9233H170.698V46.0909H173.702V57.1065C173.702 58.0346 173.475 58.8111 173.02 59.4361C172.566 60.0611 171.936 60.5298 171.131 60.8423C170.331 61.1596 169.41 61.3182 168.368 61.3182ZM168.432 54.571C168.92 54.571 169.332 54.4503 169.668 54.2088C170.009 53.9626 170.269 53.6122 170.449 53.1577C170.634 52.6984 170.726 52.1491 170.726 51.5099C170.726 50.8707 170.636 50.3168 170.456 49.848C170.276 49.3745 170.016 49.0076 169.675 48.7472C169.334 48.4867 168.92 48.3565 168.432 48.3565C167.935 48.3565 167.516 48.4915 167.175 48.7614C166.834 49.0265 166.576 49.3958 166.401 49.8693C166.226 50.3428 166.138 50.8897 166.138 51.5099C166.138 52.1397 166.226 52.6842 166.401 53.1435C166.581 53.598 166.839 53.9508 167.175 54.2017C167.516 54.4479 167.935 54.571 168.432 54.571ZM176.11 57V46.0909H179.043V47.9943H179.157C179.355 47.3172 179.689 46.8059 180.158 46.4602C180.627 46.1098 181.167 45.9347 181.777 45.9347C181.929 45.9347 182.092 45.9441 182.267 45.9631C182.443 45.982 182.596 46.008 182.729 46.0412V48.7259C182.587 48.6832 182.391 48.6454 182.14 48.6122C181.889 48.5791 181.659 48.5625 181.451 48.5625C181.006 48.5625 180.608 48.6596 180.257 48.8537C179.912 49.0431 179.637 49.3082 179.434 49.6491C179.235 49.9901 179.135 50.383 179.135 50.8281V57H176.11ZM187.092 57.206C186.396 57.206 185.775 57.0852 185.231 56.8438C184.686 56.5975 184.255 56.2353 183.938 55.7571C183.626 55.2741 183.469 54.6728 183.469 53.9531C183.469 53.3471 183.581 52.8381 183.803 52.4261C184.026 52.0142 184.329 51.6828 184.712 51.4318C185.096 51.1809 185.531 50.9915 186.019 50.8636C186.512 50.7358 187.028 50.6458 187.567 50.5938C188.202 50.5275 188.713 50.4659 189.102 50.4091C189.49 50.3475 189.772 50.2576 189.947 50.1392C190.122 50.0208 190.21 49.8456 190.21 49.6136V49.571C190.21 49.1212 190.067 48.7732 189.783 48.527C189.504 48.2808 189.106 48.1577 188.59 48.1577C188.046 48.1577 187.612 48.2784 187.29 48.5199C186.969 48.7566 186.755 49.0549 186.651 49.4148L183.853 49.1875C183.995 48.5246 184.274 47.9517 184.691 47.4688C185.108 46.9811 185.645 46.607 186.303 46.3466C186.966 46.0814 187.733 45.9489 188.604 45.9489C189.21 45.9489 189.79 46.0199 190.344 46.1619C190.903 46.304 191.398 46.5241 191.829 46.8224C192.264 47.1207 192.608 47.5043 192.859 47.973C193.11 48.437 193.235 48.9934 193.235 49.642V57H190.366V55.4872H190.281C190.105 55.8281 189.871 56.1288 189.577 56.3892C189.284 56.6449 188.931 56.8461 188.519 56.9929C188.107 57.1349 187.631 57.206 187.092 57.206ZM187.958 55.1179C188.403 55.1179 188.796 55.0303 189.137 54.8551C189.478 54.6752 189.746 54.4337 189.94 54.1307C190.134 53.8277 190.231 53.4844 190.231 53.1009V51.9432C190.136 52.0047 190.006 52.0616 189.84 52.1136C189.679 52.161 189.497 52.206 189.293 52.2486C189.09 52.2865 188.886 52.322 188.683 52.3551C188.479 52.3835 188.294 52.4096 188.129 52.4332C187.773 52.4853 187.463 52.5682 187.198 52.6818C186.933 52.7955 186.727 52.9493 186.58 53.1435C186.433 53.3329 186.36 53.5696 186.36 53.8537C186.36 54.2656 186.509 54.5805 186.808 54.7983C187.111 55.0114 187.494 55.1179 187.958 55.1179ZM199.602 57.1776C198.774 57.1776 198.023 56.9645 197.351 56.5384C196.683 56.1075 196.153 55.4754 195.76 54.642C195.372 53.804 195.178 52.7765 195.178 51.5597C195.178 50.3097 195.379 49.2704 195.781 48.4418C196.184 47.6084 196.719 46.9858 197.386 46.5739C198.059 46.1572 198.795 45.9489 199.595 45.9489C200.206 45.9489 200.715 46.053 201.122 46.2614C201.534 46.465 201.866 46.7206 202.116 47.0284C202.372 47.3314 202.566 47.6297 202.699 47.9233H202.791V42.4545H205.81V57H202.827V55.2528H202.699C202.557 55.5559 202.356 55.8565 202.095 56.1548C201.839 56.4484 201.506 56.6922 201.094 56.8864C200.687 57.0805 200.189 57.1776 199.602 57.1776ZM200.561 54.7699C201.049 54.7699 201.461 54.6373 201.797 54.3722C202.138 54.1023 202.398 53.7259 202.578 53.2429C202.763 52.7599 202.855 52.1941 202.855 51.5455C202.855 50.8968 202.765 50.3333 202.585 49.8551C202.405 49.3769 202.145 49.0076 201.804 48.7472C201.463 48.4867 201.049 48.3565 200.561 48.3565C200.064 48.3565 199.645 48.4915 199.304 48.7614C198.963 49.0312 198.705 49.4053 198.53 49.8835C198.355 50.3617 198.267 50.9157 198.267 51.5455C198.267 52.1799 198.355 52.741 198.53 53.2287C198.71 53.7116 198.968 54.0904 199.304 54.3651C199.645 54.6349 200.064 54.7699 200.561 54.7699ZM213.269 57.2131C212.147 57.2131 211.181 56.9858 210.371 56.5312C209.566 56.072 208.946 55.4233 208.51 54.5852C208.075 53.7424 207.857 52.7457 207.857 51.5952C207.857 50.473 208.075 49.4882 208.51 48.6406C208.946 47.7931 209.559 47.1326 210.35 46.6591C211.145 46.1856 212.078 45.9489 213.148 45.9489C213.868 45.9489 214.538 46.0649 215.158 46.2969C215.783 46.5241 216.328 46.8674 216.792 47.3267C217.26 47.786 217.625 48.3636 217.885 49.0597C218.146 49.7509 218.276 50.5606 218.276 51.4886V52.3196H209.064V50.4446H215.428C215.428 50.009 215.333 49.6231 215.144 49.2869C214.954 48.9508 214.692 48.688 214.355 48.4986C214.024 48.3045 213.638 48.2074 213.198 48.2074C212.739 48.2074 212.331 48.3139 211.976 48.527C211.626 48.7353 211.351 49.017 211.152 49.3722C210.953 49.7225 210.852 50.1132 210.847 50.544V52.3267C210.847 52.8665 210.946 53.3329 211.145 53.7259C211.349 54.1188 211.635 54.4219 212.005 54.6349C212.374 54.848 212.812 54.9545 213.319 54.9545C213.655 54.9545 213.962 54.9072 214.242 54.8125C214.521 54.7178 214.76 54.5758 214.959 54.3864C215.158 54.197 215.31 53.965 215.414 53.6903L218.212 53.875C218.07 54.5473 217.779 55.1345 217.338 55.6364C216.903 56.1335 216.339 56.5218 215.648 56.8011C214.962 57.0758 214.168 57.2131 213.269 57.2131ZM230.682 46.0909V48.3636H224.112V46.0909H230.682ZM225.604 43.4773H228.629V53.6477C228.629 53.9271 228.672 54.1449 228.757 54.3011C228.842 54.4527 228.961 54.5592 229.112 54.6207C229.268 54.6823 229.448 54.7131 229.652 54.7131C229.794 54.7131 229.936 54.7012 230.078 54.6776C230.22 54.6491 230.329 54.6278 230.405 54.6136L230.881 56.8651C230.729 56.9124 230.516 56.9669 230.241 57.0284C229.967 57.0947 229.633 57.1349 229.24 57.1491C228.511 57.1776 227.872 57.0805 227.322 56.858C226.778 56.6354 226.354 56.2898 226.051 55.821C225.748 55.3523 225.599 54.7604 225.604 54.0455V43.4773ZM237.464 57.2131C236.361 57.2131 235.407 56.9787 234.602 56.5099C233.802 56.0365 233.184 55.3783 232.749 54.5355C232.313 53.688 232.095 52.7055 232.095 51.5881C232.095 50.4612 232.313 49.4763 232.749 48.6335C233.184 47.786 233.802 47.1278 234.602 46.6591C235.407 46.1856 236.361 45.9489 237.464 45.9489C238.568 45.9489 239.519 46.1856 240.32 46.6591C241.125 47.1278 241.745 47.786 242.18 48.6335C242.616 49.4763 242.834 50.4612 242.834 51.5881C242.834 52.7055 242.616 53.688 242.18 54.5355C241.745 55.3783 241.125 56.0365 240.32 56.5099C239.519 56.9787 238.568 57.2131 237.464 57.2131ZM237.479 54.8693C237.981 54.8693 238.4 54.7273 238.736 54.4432C239.072 54.1544 239.325 53.7614 239.496 53.2642C239.671 52.767 239.759 52.2012 239.759 51.5668C239.759 50.9323 239.671 50.3665 239.496 49.8693C239.325 49.3722 239.072 48.9792 238.736 48.6903C238.4 48.4015 237.981 48.2571 237.479 48.2571C236.972 48.2571 236.546 48.4015 236.2 48.6903C235.859 48.9792 235.601 49.3722 235.426 49.8693C235.256 50.3665 235.17 50.9323 235.17 51.5668C235.17 52.2012 235.256 52.767 235.426 53.2642C235.601 53.7614 235.859 54.1544 236.2 54.4432C236.546 54.7273 236.972 54.8693 237.479 54.8693ZM249.487 57V42.4545H255.225C256.329 42.4545 257.269 42.6652 258.045 43.0866C258.822 43.5033 259.413 44.0833 259.821 44.8267C260.233 45.5653 260.439 46.4176 260.439 47.3835C260.439 48.3494 260.23 49.2017 259.814 49.9403C259.397 50.679 258.793 51.2543 258.002 51.6662C257.217 52.0781 256.265 52.2841 255.147 52.2841H251.49V49.8196H254.65C255.242 49.8196 255.73 49.7178 256.113 49.5142C256.502 49.3059 256.79 49.0194 256.98 48.6548C257.174 48.2855 257.271 47.8617 257.271 47.3835C257.271 46.9006 257.174 46.4792 256.98 46.1193C256.79 45.7547 256.502 45.473 256.113 45.2741C255.725 45.0705 255.233 44.9688 254.636 44.9688H252.562V57H249.487ZM262.436 57V42.4545H268.175C269.273 42.4545 270.211 42.651 270.987 43.044C271.768 43.4323 272.363 43.9839 272.77 44.6989C273.182 45.4091 273.388 46.2448 273.388 47.206C273.388 48.1719 273.179 49.0028 272.763 49.6989C272.346 50.3902 271.742 50.9205 270.952 51.2898C270.166 51.6591 269.214 51.8438 268.097 51.8438H264.254V49.3722H267.599C268.187 49.3722 268.674 49.2917 269.062 49.1307C269.451 48.9697 269.74 48.7282 269.929 48.4062C270.123 48.0843 270.22 47.6842 270.22 47.206C270.22 46.723 270.123 46.3158 269.929 45.9844C269.74 45.6529 269.448 45.402 269.055 45.2315C268.667 45.0563 268.177 44.9688 267.585 44.9688H265.511V57H262.436ZM270.291 50.3807L273.906 57H270.511L266.974 50.3807H270.291ZM288.928 49.7273C288.928 51.3134 288.627 52.6629 288.026 53.7756C287.429 54.8883 286.615 55.7382 285.582 56.3253C284.555 56.9077 283.4 57.1989 282.116 57.1989C280.824 57.1989 279.664 56.9053 278.636 56.3182C277.609 55.7311 276.797 54.8812 276.2 53.7685C275.604 52.6558 275.305 51.3087 275.305 49.7273C275.305 48.1411 275.604 46.7917 276.2 45.679C276.797 44.5663 277.609 43.7187 278.636 43.1364C279.664 42.5492 280.824 42.2557 282.116 42.2557C283.4 42.2557 284.555 42.5492 285.582 43.1364C286.615 43.7187 287.429 44.5663 288.026 45.679C288.627 46.7917 288.928 48.1411 288.928 49.7273ZM285.81 49.7273C285.81 48.6998 285.656 47.8333 285.348 47.1278C285.045 46.4223 284.616 45.8873 284.062 45.5227C283.509 45.1581 282.86 44.9759 282.116 44.9759C281.373 44.9759 280.724 45.1581 280.17 45.5227C279.616 45.8873 279.186 46.4223 278.878 47.1278C278.575 47.8333 278.423 48.6998 278.423 49.7273C278.423 50.7547 278.575 51.6212 278.878 52.3267C279.186 53.0322 279.616 53.5672 280.17 53.9318C280.724 54.2964 281.373 54.4787 282.116 54.4787C282.86 54.4787 283.509 54.2964 284.062 53.9318C284.616 53.5672 285.045 53.0322 285.348 52.3267C285.656 51.6212 285.81 50.7547 285.81 49.7273ZM294.764 42.4545L294.487 52.6392H291.887L291.603 42.4545H294.764ZM293.187 57.1847C292.718 57.1847 292.316 57.0189 291.98 56.6875C291.644 56.3513 291.478 55.9489 291.483 55.4801C291.478 55.0161 291.644 54.6184 291.98 54.2869C292.316 53.9555 292.718 53.7898 293.187 53.7898C293.637 53.7898 294.032 53.9555 294.373 54.2869C294.714 54.6184 294.887 55.0161 294.892 55.4801C294.887 55.7926 294.804 56.0791 294.643 56.3395C294.487 56.5952 294.281 56.8011 294.025 56.9574C293.77 57.1089 293.49 57.1847 293.187 57.1847Z" fill="white"/>
<path d="M135.959 86V77.2727H141.43V78.4062H137.276V81.0653H141.145V82.1946H137.276V84.8665H141.482V86H135.959ZM144.561 82.1136V86H143.287V79.4545H144.51V80.5199H144.591C144.742 80.1733 144.977 79.8949 145.298 79.6847C145.622 79.4744 146.03 79.3693 146.521 79.3693C146.967 79.3693 147.358 79.4631 147.693 79.6506C148.028 79.8352 148.288 80.1108 148.473 80.4773C148.658 80.8437 148.75 81.2969 148.75 81.8366V86H147.476V81.9901C147.476 81.5156 147.352 81.1449 147.105 80.8778C146.858 80.608 146.519 80.473 146.087 80.473C145.791 80.473 145.528 80.5369 145.298 80.6648C145.071 80.7926 144.891 80.9801 144.757 81.2273C144.626 81.4716 144.561 81.767 144.561 82.1136ZM150.659 79.4545H151.933V86.4261C151.933 86.8636 151.853 87.233 151.694 87.5341C151.538 87.8352 151.305 88.0639 150.996 88.2202C150.689 88.3764 150.309 88.4545 149.858 88.4545C149.812 88.4545 149.77 88.4545 149.73 88.4545C149.687 88.4545 149.643 88.4531 149.598 88.4503V87.3551C149.638 87.3551 149.673 87.3551 149.704 87.3551C149.733 87.3551 149.765 87.3551 149.802 87.3551C150.103 87.3551 150.321 87.2741 150.454 87.1122C150.591 86.9531 150.659 86.7216 150.659 86.4176V79.4545ZM151.29 78.4446C151.068 78.4446 150.878 78.3707 150.719 78.223C150.562 78.0724 150.484 77.8935 150.484 77.6861C150.484 77.4759 150.562 77.2969 150.719 77.1491C150.878 76.9986 151.068 76.9233 151.29 76.9233C151.511 76.9233 151.7 76.9986 151.856 77.1491C152.015 77.2969 152.095 77.4759 152.095 77.6861C152.095 77.8935 152.015 78.0724 151.856 78.223C151.7 78.3707 151.511 78.4446 151.29 78.4446ZM156.604 86.1321C155.991 86.1321 155.455 85.9915 154.998 85.7102C154.54 85.429 154.185 85.0355 153.932 84.5298C153.68 84.0241 153.553 83.4332 153.553 82.7571C153.553 82.0781 153.68 81.4844 153.932 80.9759C154.185 80.4673 154.54 80.0724 154.998 79.7912C155.455 79.5099 155.991 79.3693 156.604 79.3693C157.218 79.3693 157.753 79.5099 158.211 79.7912C158.668 80.0724 159.023 80.4673 159.276 80.9759C159.529 81.4844 159.655 82.0781 159.655 82.7571C159.655 83.4332 159.529 84.0241 159.276 84.5298C159.023 85.0355 158.668 85.429 158.211 85.7102C157.753 85.9915 157.218 86.1321 156.604 86.1321ZM156.609 85.0625C157.006 85.0625 157.336 84.9574 157.597 84.7472C157.859 84.5369 158.052 84.2571 158.177 83.9077C158.305 83.5582 158.368 83.1733 158.368 82.7528C158.368 82.3352 158.305 81.9517 158.177 81.6023C158.052 81.25 157.859 80.9673 157.597 80.7543C157.336 80.5412 157.006 80.4347 156.609 80.4347C156.208 80.4347 155.876 80.5412 155.611 80.7543C155.35 80.9673 155.155 81.25 155.028 81.6023C154.903 81.9517 154.84 82.3352 154.84 82.7528C154.84 83.1733 154.903 83.5582 155.028 83.9077C155.155 84.2571 155.35 84.5369 155.611 84.7472C155.876 84.9574 156.208 85.0625 156.609 85.0625ZM161.86 88.4545C161.67 88.4545 161.497 88.4389 161.34 88.4077C161.184 88.3793 161.068 88.348 160.991 88.3139L161.298 87.2699C161.531 87.3324 161.738 87.3594 161.92 87.3509C162.102 87.3423 162.262 87.2741 162.402 87.1463C162.544 87.0185 162.669 86.8097 162.777 86.5199L162.934 86.0852L160.539 79.4545H161.903L163.561 84.5341H163.629L165.287 79.4545H166.654L163.957 86.8736C163.832 87.2145 163.673 87.5028 163.48 87.7386C163.287 87.9773 163.056 88.1563 162.789 88.2756C162.522 88.3949 162.213 88.4545 161.86 88.4545ZM173.332 86.1449C172.918 86.1449 172.543 86.0682 172.207 85.9148C171.872 85.7585 171.607 85.5327 171.411 85.2372C171.217 84.9418 171.121 84.5795 171.121 84.1506C171.121 83.7812 171.192 83.4773 171.334 83.2386C171.476 83 171.668 82.8111 171.909 82.6719C172.151 82.5327 172.421 82.4276 172.719 82.3565C173.017 82.2855 173.321 82.2315 173.631 82.1946C174.023 82.1491 174.341 82.1122 174.585 82.0838C174.83 82.0526 175.007 82.0028 175.118 81.9347C175.229 81.8665 175.284 81.7557 175.284 81.6023V81.5724C175.284 81.2003 175.179 80.9119 174.969 80.7074C174.761 80.5028 174.452 80.4006 174.04 80.4006C173.611 80.4006 173.273 80.4957 173.026 80.6861C172.781 80.8736 172.612 81.0824 172.519 81.3125L171.321 81.0398C171.463 80.642 171.671 80.321 171.943 80.0767C172.219 79.8295 172.536 79.6506 172.894 79.5398C173.251 79.4261 173.628 79.3693 174.023 79.3693C174.284 79.3693 174.561 79.4006 174.854 79.4631C175.149 79.5227 175.425 79.6335 175.68 79.7955C175.939 79.9574 176.151 80.1889 176.315 80.4901C176.48 80.7884 176.563 81.1761 176.563 81.6534V86H175.318V85.1051H175.267C175.185 85.2699 175.061 85.4318 174.896 85.5909C174.732 85.75 174.52 85.8821 174.261 85.9872C174.003 86.0923 173.693 86.1449 173.332 86.1449ZM173.609 85.1222C173.962 85.1222 174.263 85.0526 174.513 84.9134C174.766 84.7741 174.957 84.5923 175.088 84.3679C175.222 84.1406 175.288 83.8977 175.288 83.6392V82.7955C175.243 82.8409 175.155 82.8835 175.024 82.9233C174.896 82.9602 174.75 82.9929 174.585 83.0213C174.421 83.0469 174.26 83.071 174.104 83.0938C173.948 83.1136 173.817 83.1307 173.712 83.1449C173.465 83.1761 173.239 83.2287 173.034 83.3026C172.832 83.3764 172.671 83.483 172.548 83.6222C172.429 83.7585 172.369 83.9403 172.369 84.1676C172.369 84.483 172.486 84.7216 172.719 84.8835C172.952 85.0426 173.249 85.1222 173.609 85.1222ZM179.734 77.2727V86H178.46V77.2727H179.734ZM182.922 77.2727V86H181.648V77.2727H182.922ZM188.314 86V77.2727H189.588V80.5156H189.665C189.739 80.3793 189.846 80.2216 189.985 80.0426C190.124 79.8636 190.317 79.7074 190.564 79.5739C190.811 79.4375 191.138 79.3693 191.544 79.3693C192.073 79.3693 192.544 79.5028 192.959 79.7699C193.374 80.0369 193.699 80.4219 193.935 80.9247C194.174 81.4276 194.293 82.0327 194.293 82.7401C194.293 83.4474 194.175 84.054 193.939 84.5597C193.703 85.0625 193.38 85.4503 192.968 85.723C192.556 85.9929 192.086 86.1278 191.557 86.1278C191.159 86.1278 190.834 86.0611 190.581 85.9276C190.331 85.794 190.135 85.6378 189.993 85.4588C189.851 85.2798 189.742 85.1207 189.665 84.9815H189.559V86H188.314ZM189.563 82.7273C189.563 83.1875 189.63 83.5909 189.763 83.9375C189.897 84.2841 190.09 84.5554 190.343 84.7514C190.596 84.9446 190.905 85.0412 191.272 85.0412C191.652 85.0412 191.971 84.9403 192.226 84.7386C192.482 84.5341 192.675 84.2571 192.806 83.9077C192.939 83.5582 193.006 83.1648 193.006 82.7273C193.006 82.2955 192.941 81.9077 192.81 81.5639C192.682 81.2202 192.489 80.9489 192.23 80.75C191.975 80.5511 191.655 80.4517 191.272 80.4517C190.902 80.4517 190.59 80.5469 190.334 80.7372C190.081 80.9276 189.89 81.1932 189.759 81.5341C189.628 81.875 189.563 82.2727 189.563 82.7273ZM198.745 86.1321C198.1 86.1321 197.544 85.9943 197.079 85.7188C196.615 85.4403 196.258 85.0497 196.005 84.5469C195.755 84.0412 195.63 83.4489 195.63 82.7699C195.63 82.0994 195.755 81.5085 196.005 80.9972C196.258 80.4858 196.61 80.0866 197.062 79.7997C197.516 79.5128 198.047 79.3693 198.655 79.3693C199.025 79.3693 199.383 79.4304 199.729 79.5526C200.076 79.6747 200.387 79.8665 200.662 80.1278C200.938 80.3892 201.155 80.7287 201.314 81.1463C201.473 81.5611 201.553 82.0653 201.553 82.6591V83.1108H196.35V82.1562H200.304C200.304 81.821 200.236 81.5241 200.1 81.2656C199.963 81.0043 199.772 80.7983 199.525 80.6477C199.28 80.4972 198.993 80.4219 198.664 80.4219C198.306 80.4219 197.993 80.5099 197.726 80.6861C197.462 80.8594 197.258 81.0866 197.113 81.3679C196.971 81.6463 196.9 81.9489 196.9 82.2756V83.0213C196.9 83.4588 196.976 83.831 197.13 84.1378C197.286 84.4446 197.503 84.679 197.782 84.8409C198.06 85 198.385 85.0795 198.758 85.0795C198.999 85.0795 199.219 85.0455 199.418 84.9773C199.617 84.9062 199.789 84.8011 199.934 84.6619C200.079 84.5227 200.189 84.3509 200.266 84.1463L201.472 84.3636C201.375 84.7187 201.202 85.0298 200.952 85.2969C200.705 85.5611 200.394 85.767 200.019 85.9148C199.647 86.0597 199.222 86.1321 198.745 86.1321ZM204.441 82.1136V86H203.167V79.4545H204.39V80.5199H204.471C204.621 80.1733 204.857 79.8949 205.178 79.6847C205.502 79.4744 205.91 79.3693 206.401 79.3693C206.847 79.3693 207.238 79.4631 207.573 79.6506C207.908 79.8352 208.168 80.1108 208.353 80.4773C208.537 80.8437 208.63 81.2969 208.63 81.8366V86H207.356V81.9901C207.356 81.5156 207.232 81.1449 206.985 80.8778C206.738 80.608 206.398 80.473 205.966 80.473C205.671 80.473 205.408 80.5369 205.178 80.6648C204.951 80.7926 204.77 80.9801 204.637 81.2273C204.506 81.4716 204.441 81.767 204.441 82.1136ZM213.36 86.1321C212.715 86.1321 212.159 85.9943 211.693 85.7188C211.23 85.4403 210.872 85.0497 210.62 84.5469C210.37 84.0412 210.245 83.4489 210.245 82.7699C210.245 82.0994 210.37 81.5085 210.62 80.9972C210.872 80.4858 211.225 80.0866 211.676 79.7997C212.131 79.5128 212.662 79.3693 213.27 79.3693C213.639 79.3693 213.997 79.4304 214.344 79.5526C214.691 79.6747 215.002 79.8665 215.277 80.1278C215.553 80.3892 215.77 80.7287 215.929 81.1463C216.088 81.5611 216.168 82.0653 216.168 82.6591V83.1108H210.965V82.1562H214.919C214.919 81.821 214.851 81.5241 214.715 81.2656C214.578 81.0043 214.387 80.7983 214.139 80.6477C213.895 80.4972 213.608 80.4219 213.279 80.4219C212.921 80.4219 212.608 80.5099 212.341 80.6861C212.077 80.8594 211.872 81.0866 211.727 81.3679C211.585 81.6463 211.514 81.9489 211.514 82.2756V83.0213C211.514 83.4588 211.591 83.831 211.745 84.1378C211.901 84.4446 212.118 84.679 212.397 84.8409C212.675 85 213 85.0795 213.372 85.0795C213.614 85.0795 213.834 85.0455 214.033 84.9773C214.232 84.9062 214.404 84.8011 214.549 84.6619C214.693 84.5227 214.804 84.3509 214.881 84.1463L216.087 84.3636C215.99 84.7187 215.817 85.0298 215.567 85.2969C215.32 85.5611 215.009 85.767 214.634 85.9148C214.262 86.0597 213.837 86.1321 213.36 86.1321ZM220.897 79.4545V80.4773H217.198V79.4545H220.897ZM218.212 86V78.696C218.212 78.2869 218.301 77.9474 218.48 77.6776C218.659 77.4048 218.897 77.2017 219.192 77.0682C219.488 76.9318 219.809 76.8636 220.155 76.8636C220.411 76.8636 220.63 76.8849 220.811 76.9276C220.993 76.9673 221.128 77.0043 221.216 77.0384L220.918 78.0696C220.858 78.0526 220.782 78.0327 220.688 78.0099C220.594 77.9844 220.48 77.9716 220.347 77.9716C220.037 77.9716 219.816 78.0483 219.682 78.2017C219.551 78.3551 219.486 78.5767 219.486 78.8665V86H218.212ZM222.411 86V79.4545H223.685V86H222.411ZM223.055 78.4446C222.833 78.4446 222.643 78.3707 222.484 78.223C222.327 78.0724 222.249 77.8935 222.249 77.6861C222.249 77.4759 222.327 77.2969 222.484 77.1491C222.643 76.9986 222.833 76.9233 223.055 76.9233C223.276 76.9233 223.465 76.9986 223.621 77.1491C223.781 77.2969 223.86 77.4759 223.86 77.6861C223.86 77.8935 223.781 78.0724 223.621 78.223C223.465 78.3707 223.276 78.4446 223.055 78.4446ZM228.655 79.4545V80.4773H225.08V79.4545H228.655ZM226.038 77.8864H227.313V84.0781C227.313 84.3253 227.349 84.5114 227.423 84.6364C227.497 84.7585 227.592 84.8423 227.709 84.8878C227.828 84.9304 227.957 84.9517 228.097 84.9517C228.199 84.9517 228.288 84.9446 228.365 84.9304C228.442 84.9162 228.501 84.9048 228.544 84.8963L228.774 85.9489C228.7 85.9773 228.595 86.0057 228.459 86.0341C228.323 86.0653 228.152 86.0824 227.948 86.0852C227.612 86.0909 227.3 86.0312 227.01 85.9062C226.72 85.7812 226.486 85.5881 226.307 85.3267C226.128 85.0653 226.038 84.7372 226.038 84.3423V77.8864ZM235.064 81.0526L233.909 81.2571C233.861 81.1094 233.784 80.9687 233.679 80.8352C233.576 80.7017 233.437 80.5923 233.261 80.5071C233.085 80.4219 232.865 80.3793 232.601 80.3793C232.24 80.3793 231.939 80.4602 231.697 80.6222C231.456 80.7812 231.335 80.9872 231.335 81.2401C231.335 81.4588 231.416 81.6349 231.578 81.7685C231.74 81.902 232.001 82.0114 232.362 82.0966L233.402 82.3352C234.004 82.4744 234.453 82.6889 234.748 82.9787C235.044 83.2685 235.192 83.6449 235.192 84.108C235.192 84.5 235.078 84.8494 234.851 85.1562C234.626 85.4602 234.312 85.6989 233.909 85.8722C233.508 86.0455 233.044 86.1321 232.515 86.1321C231.782 86.1321 231.184 85.9759 230.721 85.6634C230.258 85.348 229.974 84.9006 229.869 84.321L231.101 84.1335C231.177 84.4545 231.335 84.6974 231.574 84.8622C231.812 85.0241 232.123 85.1051 232.507 85.1051C232.925 85.1051 233.258 85.0185 233.508 84.8452C233.758 84.669 233.883 84.4545 233.883 84.2017C233.883 83.9972 233.807 83.8253 233.653 83.6861C233.503 83.5469 233.271 83.4418 232.959 83.3707L231.851 83.1278C231.24 82.9886 230.788 82.767 230.496 82.4631C230.206 82.1591 230.061 81.7741 230.061 81.3082C230.061 80.9219 230.169 80.5838 230.385 80.294C230.601 80.0043 230.899 79.7784 231.28 79.6165C231.66 79.4517 232.096 79.3693 232.588 79.3693C233.295 79.3693 233.852 79.5227 234.258 79.8295C234.665 80.1335 234.933 80.5412 235.064 81.0526ZM241.587 86L239.661 79.4545H240.978L242.261 84.2614H242.325L243.611 79.4545H244.928L246.207 84.2401H246.271L247.545 79.4545H248.861L246.94 86H245.64L244.31 81.2741H244.212L242.883 86H241.587ZM250.271 86V79.4545H251.545V86H250.271ZM250.914 78.4446C250.692 78.4446 250.502 78.3707 250.343 78.223C250.187 78.0724 250.109 77.8935 250.109 77.6861C250.109 77.4759 250.187 77.2969 250.343 77.1491C250.502 76.9986 250.692 76.9233 250.914 76.9233C251.136 76.9233 251.325 76.9986 251.481 77.1491C251.64 77.2969 251.719 77.4759 251.719 77.6861C251.719 77.8935 251.64 78.0724 251.481 78.223C251.325 78.3707 251.136 78.4446 250.914 78.4446ZM256.514 79.4545V80.4773H252.939V79.4545H256.514ZM253.898 77.8864H255.172V84.0781C255.172 84.3253 255.209 84.5114 255.283 84.6364C255.357 84.7585 255.452 84.8423 255.568 84.8878C255.688 84.9304 255.817 84.9517 255.956 84.9517C256.058 84.9517 256.148 84.9446 256.224 84.9304C256.301 84.9162 256.361 84.9048 256.403 84.8963L256.634 85.9489C256.56 85.9773 256.455 86.0057 256.318 86.0341C256.182 86.0653 256.011 86.0824 255.807 86.0852C255.472 86.0909 255.159 86.0312 254.869 85.9062C254.58 85.7812 254.345 85.5881 254.166 85.3267C253.987 85.0653 253.898 84.7372 253.898 84.3423V77.8864ZM259.538 82.1136V86H258.264V77.2727H259.521V80.5199H259.602C259.756 80.1676 259.99 79.8878 260.306 79.6804C260.621 79.473 261.033 79.3693 261.541 79.3693C261.99 79.3693 262.382 79.4616 262.717 79.6463C263.056 79.831 263.317 80.1065 263.502 80.473C263.689 80.8366 263.783 81.2912 263.783 81.8366V86H262.509V81.9901C262.509 81.5099 262.385 81.1378 262.138 80.8736C261.891 80.6065 261.547 80.473 261.107 80.473C260.806 80.473 260.536 80.5369 260.297 80.6648C260.061 80.7926 259.875 80.9801 259.739 81.2273C259.605 81.4716 259.538 81.767 259.538 82.1136ZM268.44 86.1321C267.827 86.1321 267.291 85.9915 266.834 85.7102C266.376 85.429 266.021 85.0355 265.768 84.5298C265.515 84.0241 265.389 83.4332 265.389 82.7571C265.389 82.0781 265.515 81.4844 265.768 80.9759C266.021 80.4673 266.376 80.0724 266.834 79.7912C267.291 79.5099 267.827 79.3693 268.44 79.3693C269.054 79.3693 269.589 79.5099 270.047 79.7912C270.504 80.0724 270.859 80.4673 271.112 80.9759C271.365 81.4844 271.491 82.0781 271.491 82.7571C271.491 83.4332 271.365 84.0241 271.112 84.5298C270.859 85.0355 270.504 85.429 270.047 85.7102C269.589 85.9915 269.054 86.1321 268.44 86.1321ZM268.444 85.0625C268.842 85.0625 269.172 84.9574 269.433 84.7472C269.694 84.5369 269.888 84.2571 270.013 83.9077C270.14 83.5582 270.204 83.1733 270.204 82.7528C270.204 82.3352 270.14 81.9517 270.013 81.6023C269.888 81.25 269.694 80.9673 269.433 80.7543C269.172 80.5412 268.842 80.4347 268.444 80.4347C268.044 80.4347 267.712 80.5412 267.447 80.7543C267.186 80.9673 266.991 81.25 266.864 81.6023C266.739 81.9517 266.676 82.3352 266.676 82.7528C266.676 83.1733 266.739 83.5582 266.864 83.9077C266.991 84.2571 267.186 84.5369 267.447 84.7472C267.712 84.9574 268.044 85.0625 268.444 85.0625ZM277.26 83.2855V79.4545H278.538V86H277.285V84.8665H277.217C277.067 85.2159 276.825 85.5071 276.493 85.7401C276.163 85.9702 275.753 86.0852 275.261 86.0852C274.841 86.0852 274.469 85.9929 274.145 85.8082C273.824 85.6207 273.571 85.3438 273.386 84.9773C273.204 84.6108 273.114 84.1577 273.114 83.6179V79.4545H274.388V83.4645C274.388 83.9105 274.511 84.2656 274.758 84.5298C275.006 84.794 275.327 84.9261 275.722 84.9261C275.96 84.9261 276.197 84.8665 276.433 84.7472C276.672 84.6278 276.869 84.4474 277.026 84.206C277.185 83.9645 277.263 83.6577 277.26 83.2855ZM283.506 79.4545V80.4773H279.93V79.4545H283.506ZM280.889 77.8864H282.163V84.0781C282.163 84.3253 282.2 84.5114 282.274 84.6364C282.348 84.7585 282.443 84.8423 282.56 84.8878C282.679 84.9304 282.808 84.9517 282.947 84.9517C283.05 84.9517 283.139 84.9446 283.216 84.9304C283.293 84.9162 283.352 84.9048 283.395 84.8963L283.625 85.9489C283.551 85.9773 283.446 86.0057 283.31 86.0341C283.173 86.0653 283.003 86.0824 282.798 86.0852C282.463 86.0909 282.151 86.0312 281.861 85.9062C281.571 85.7812 281.337 85.5881 281.158 85.3267C280.979 85.0653 280.889 84.7372 280.889 84.3423V77.8864ZM135.857 105V98.4545H137.088V99.4943H137.156C137.276 99.142 137.486 98.8651 137.787 98.6634C138.091 98.4588 138.435 98.3565 138.818 98.3565C138.898 98.3565 138.991 98.3594 139.099 98.3651C139.21 98.3707 139.297 98.3778 139.359 98.3864V99.6051C139.308 99.5909 139.217 99.5753 139.087 99.5582C138.956 99.5384 138.825 99.5284 138.695 99.5284C138.393 99.5284 138.125 99.5923 137.889 99.7202C137.656 99.8452 137.472 100.02 137.335 100.244C137.199 100.466 137.131 100.719 137.131 101.003V105H135.857ZM143.249 105.132C142.604 105.132 142.048 104.994 141.582 104.719C141.119 104.44 140.761 104.05 140.509 103.547C140.259 103.041 140.134 102.449 140.134 101.77C140.134 101.099 140.259 100.509 140.509 99.9972C140.761 99.4858 141.114 99.0866 141.565 98.7997C142.02 98.5128 142.551 98.3693 143.159 98.3693C143.528 98.3693 143.886 98.4304 144.233 98.5526C144.58 98.6747 144.891 98.8665 145.166 99.1278C145.442 99.3892 145.659 99.7287 145.818 100.146C145.977 100.561 146.057 101.065 146.057 101.659V102.111H140.854V101.156H144.808C144.808 100.821 144.74 100.524 144.604 100.266C144.467 100.004 144.276 99.7983 144.028 99.6477C143.784 99.4972 143.497 99.4219 143.168 99.4219C142.81 99.4219 142.497 99.5099 142.23 99.6861C141.966 99.8594 141.761 100.087 141.617 100.368C141.475 100.646 141.403 100.949 141.403 101.276V102.021C141.403 102.459 141.48 102.831 141.634 103.138C141.79 103.445 142.007 103.679 142.286 103.841C142.564 104 142.889 104.08 143.261 104.08C143.503 104.08 143.723 104.045 143.922 103.977C144.121 103.906 144.293 103.801 144.438 103.662C144.582 103.523 144.693 103.351 144.77 103.146L145.976 103.364C145.879 103.719 145.706 104.03 145.456 104.297C145.209 104.561 144.898 104.767 144.523 104.915C144.151 105.06 143.726 105.132 143.249 105.132ZM152.575 100.053L151.421 100.257C151.372 100.109 151.296 99.9687 151.19 99.8352C151.088 99.7017 150.949 99.5923 150.773 99.5071C150.597 99.4219 150.377 99.3793 150.112 99.3793C149.752 99.3793 149.45 99.4602 149.209 99.6222C148.967 99.7812 148.847 99.9872 148.847 100.24C148.847 100.459 148.928 100.635 149.09 100.768C149.252 100.902 149.513 101.011 149.874 101.097L150.913 101.335C151.516 101.474 151.965 101.689 152.26 101.979C152.556 102.268 152.703 102.645 152.703 103.108C152.703 103.5 152.59 103.849 152.362 104.156C152.138 104.46 151.824 104.699 151.421 104.872C151.02 105.045 150.556 105.132 150.027 105.132C149.294 105.132 148.696 104.976 148.233 104.663C147.77 104.348 147.486 103.901 147.381 103.321L148.612 103.134C148.689 103.455 148.847 103.697 149.085 103.862C149.324 104.024 149.635 104.105 150.019 104.105C150.436 104.105 150.77 104.018 151.02 103.845C151.27 103.669 151.395 103.455 151.395 103.202C151.395 102.997 151.318 102.825 151.165 102.686C151.014 102.547 150.783 102.442 150.47 102.371L149.362 102.128C148.752 101.989 148.3 101.767 148.007 101.463C147.717 101.159 147.573 100.774 147.573 100.308C147.573 99.9219 147.681 99.5838 147.896 99.294C148.112 99.0043 148.411 98.7784 148.791 98.6165C149.172 98.4517 149.608 98.3693 150.1 98.3693C150.807 98.3693 151.364 98.5227 151.77 98.8295C152.176 99.1335 152.445 99.5412 152.575 100.053ZM157.36 98.4545V99.4773H153.784V98.4545H157.36ZM154.743 96.8864H156.017V103.078C156.017 103.325 156.054 103.511 156.128 103.636C156.202 103.759 156.297 103.842 156.414 103.888C156.533 103.93 156.662 103.952 156.801 103.952C156.904 103.952 156.993 103.945 157.07 103.93C157.147 103.916 157.206 103.905 157.249 103.896L157.479 104.949C157.405 104.977 157.3 105.006 157.164 105.034C157.027 105.065 156.857 105.082 156.652 105.085C156.317 105.091 156.004 105.031 155.715 104.906C155.425 104.781 155.191 104.588 155.012 104.327C154.833 104.065 154.743 103.737 154.743 103.342V96.8864ZM158.969 105V98.4545H160.201V99.4943H160.269C160.388 99.142 160.598 98.8651 160.899 98.6634C161.203 98.4588 161.547 98.3565 161.931 98.3565C162.01 98.3565 162.104 98.3594 162.212 98.3651C162.323 98.3707 162.409 98.3778 162.472 98.3864V99.6051C162.421 99.5909 162.33 99.5753 162.199 99.5582C162.068 99.5384 161.938 99.5284 161.807 99.5284C161.506 99.5284 161.237 99.5923 161.002 99.7202C160.769 99.8452 160.584 100.02 160.448 100.244C160.311 100.466 160.243 100.719 160.243 101.003V105H158.969ZM163.775 105V98.4545H165.049V105H163.775ZM164.418 97.4446C164.196 97.4446 164.006 97.3707 163.847 97.223C163.691 97.0724 163.613 96.8935 163.613 96.6861C163.613 96.4759 163.691 96.2969 163.847 96.1491C164.006 95.9986 164.196 95.9233 164.418 95.9233C164.64 95.9233 164.828 95.9986 164.985 96.1491C165.144 96.2969 165.223 96.4759 165.223 96.6861C165.223 96.8935 165.144 97.0724 164.985 97.223C164.828 97.3707 164.64 97.4446 164.418 97.4446ZM169.72 105.132C169.086 105.132 168.541 104.989 168.084 104.702C167.629 104.412 167.28 104.013 167.035 103.504C166.791 102.996 166.669 102.413 166.669 101.757C166.669 101.092 166.794 100.506 167.044 99.9972C167.294 99.4858 167.646 99.0866 168.101 98.7997C168.555 98.5128 169.091 98.3693 169.707 98.3693C170.204 98.3693 170.647 98.4616 171.037 98.6463C171.426 98.8281 171.74 99.0838 171.978 99.4134C172.22 99.7429 172.363 100.128 172.409 100.568H171.169C171.101 100.261 170.944 99.9972 170.7 99.7756C170.459 99.554 170.135 99.4432 169.728 99.4432C169.373 99.4432 169.062 99.5369 168.795 99.7244C168.531 99.9091 168.325 100.173 168.177 100.517C168.03 100.858 167.956 101.261 167.956 101.727C167.956 102.205 168.028 102.616 168.173 102.963C168.318 103.31 168.522 103.578 168.787 103.768C169.054 103.959 169.368 104.054 169.728 104.054C169.97 104.054 170.189 104.01 170.385 103.922C170.584 103.831 170.75 103.702 170.883 103.534C171.02 103.366 171.115 103.165 171.169 102.929H172.409C172.363 103.352 172.226 103.73 171.995 104.062C171.765 104.395 171.457 104.656 171.071 104.847C170.687 105.037 170.237 105.132 169.72 105.132ZM177.027 98.4545V99.4773H173.451V98.4545H177.027ZM174.41 96.8864H175.684V103.078C175.684 103.325 175.721 103.511 175.795 103.636C175.869 103.759 175.964 103.842 176.081 103.888C176.2 103.93 176.329 103.952 176.469 103.952C176.571 103.952 176.66 103.945 176.737 103.93C176.814 103.916 176.873 103.905 176.916 103.896L177.146 104.949C177.072 104.977 176.967 105.006 176.831 105.034C176.694 105.065 176.524 105.082 176.319 105.085C175.984 105.091 175.672 105.031 175.382 104.906C175.092 104.781 174.858 104.588 174.679 104.327C174.5 104.065 174.41 103.737 174.41 103.342V96.8864ZM178.636 105V98.4545H179.91V105H178.636ZM179.28 97.4446C179.058 97.4446 178.868 97.3707 178.709 97.223C178.552 97.0724 178.474 96.8935 178.474 96.6861C178.474 96.4759 178.552 96.2969 178.709 96.1491C178.868 95.9986 179.058 95.9233 179.28 95.9233C179.501 95.9233 179.69 95.9986 179.846 96.1491C180.006 96.2969 180.085 96.4759 180.085 96.6861C180.085 96.8935 180.006 97.0724 179.846 97.223C179.69 97.3707 179.501 97.4446 179.28 97.4446ZM184.582 105.132C183.968 105.132 183.432 104.991 182.975 104.71C182.518 104.429 182.163 104.036 181.91 103.53C181.657 103.024 181.53 102.433 181.53 101.757C181.53 101.078 181.657 100.484 181.91 99.9759C182.163 99.4673 182.518 99.0724 182.975 98.7912C183.432 98.5099 183.968 98.3693 184.582 98.3693C185.195 98.3693 185.731 98.5099 186.188 98.7912C186.646 99.0724 187.001 99.4673 187.253 99.9759C187.506 100.484 187.633 101.078 187.633 101.757C187.633 102.433 187.506 103.024 187.253 103.53C187.001 104.036 186.646 104.429 186.188 104.71C185.731 104.991 185.195 105.132 184.582 105.132ZM184.586 104.062C184.984 104.062 185.313 103.957 185.575 103.747C185.836 103.537 186.029 103.257 186.154 102.908C186.282 102.558 186.346 102.173 186.346 101.753C186.346 101.335 186.282 100.952 186.154 100.602C186.029 100.25 185.836 99.9673 185.575 99.7543C185.313 99.5412 184.984 99.4347 184.586 99.4347C184.185 99.4347 183.853 99.5412 183.589 99.7543C183.327 99.9673 183.133 100.25 183.005 100.602C182.88 100.952 182.817 101.335 182.817 101.753C182.817 102.173 182.88 102.558 183.005 102.908C183.133 103.257 183.327 103.537 183.589 103.747C183.853 103.957 184.185 104.062 184.586 104.062ZM190.529 101.114V105H189.255V98.4545H190.478V99.5199H190.559C190.71 99.1733 190.945 98.8949 191.266 98.6847C191.59 98.4744 191.998 98.3693 192.489 98.3693C192.935 98.3693 193.326 98.4631 193.661 98.6506C193.996 98.8352 194.256 99.1108 194.441 99.4773C194.626 99.8437 194.718 100.297 194.718 100.837V105H193.444V100.99C193.444 100.516 193.32 100.145 193.073 99.8778C192.826 99.608 192.487 99.473 192.055 99.473C191.759 99.473 191.496 99.5369 191.266 99.6648C191.039 99.7926 190.859 99.9801 190.725 100.227C190.594 100.472 190.529 100.767 190.529 101.114ZM201.532 100.053L200.377 100.257C200.329 100.109 200.252 99.9687 200.147 99.8352C200.044 99.7017 199.905 99.5923 199.729 99.5071C199.553 99.4219 199.333 99.3793 199.069 99.3793C198.708 99.3793 198.407 99.4602 198.165 99.6222C197.924 99.7812 197.803 99.9872 197.803 100.24C197.803 100.459 197.884 100.635 198.046 100.768C198.208 100.902 198.469 101.011 198.83 101.097L199.87 101.335C200.472 101.474 200.921 101.689 201.216 101.979C201.512 102.268 201.66 102.645 201.66 103.108C201.66 103.5 201.546 103.849 201.319 104.156C201.094 104.46 200.78 104.699 200.377 104.872C199.976 105.045 199.512 105.132 198.983 105.132C198.25 105.132 197.652 104.976 197.189 104.663C196.726 104.348 196.442 103.901 196.337 103.321L197.569 103.134C197.645 103.455 197.803 103.697 198.042 103.862C198.28 104.024 198.591 104.105 198.975 104.105C199.392 104.105 199.726 104.018 199.976 103.845C200.226 103.669 200.351 103.455 200.351 103.202C200.351 102.997 200.275 102.825 200.121 102.686C199.971 102.547 199.739 102.442 199.427 102.371L198.319 102.128C197.708 101.989 197.256 101.767 196.963 101.463C196.674 101.159 196.529 100.774 196.529 100.308C196.529 99.9219 196.637 99.5838 196.853 99.294C197.069 99.0043 197.367 98.7784 197.748 98.6165C198.128 98.4517 198.564 98.3693 199.056 98.3693C199.763 98.3693 200.32 98.5227 200.726 98.8295C201.133 99.1335 201.401 99.5412 201.532 100.053Z" fill="#FAFAFA"/>
<path d="M369.97 79.5303C369.703 79.2641 369.679 78.8474 369.897 78.5538L369.97 78.4697L376.439 72L369.97 65.5303C369.703 65.2641 369.679 64.8474 369.897 64.5538L369.97 64.4697C370.236 64.2034 370.653 64.1792 370.946 64.3971L371.03 64.4697L378.03 71.4697C378.297 71.7359 378.321 72.1526 378.103 72.4462L378.03 72.5303L371.03 79.5303C370.737 79.8232 370.263 79.8232 369.97 79.5303Z" fill="white"/>
</g>
<defs>
<filter id="filter0_d_1_10100" x="0" y="0" width="430" height="160" filterUnits="userSpaceOnUse" color-interpolation-filters="sRGB">
<feFlood flood-opacity="0" result="BackgroundImageFix"/>
<feColorMatrix in="SourceAlpha" type="matrix" values="0 0 0 0 0 0 0 0 0 0 0 0 0 0 0 0 0 0 127 0" result="hardAlpha"/>
<feOffset dx="4" dy="8"/>
<feGaussianBlur stdDeviation="12"/>
<feComposite in2="hardAlpha" operator="out"/>
<feColorMatrix type="matrix" values="0 0 0 0 0.615686 0 0 0 0 0.505882 0 0 0 0 1 0 0 0 0.25 0"/>
<feBlend mode="normal" in2="BackgroundImageFix" result="effect1_dropShadow_1_10100"/>
<feBlend mode="normal" in="SourceGraphic" in2="effect1_dropShadow_1_10100" result="shape"/>
</filter>
<linearGradient id="paint0_linear_1_10100" x1="91.3362" y1="84.6686" x2="59.8651" y2="75.063" gradientUnits="userSpaceOnUse">
<stop stop-color="#F89300"/>
<stop offset="1" stop-color="#FFBB58"/>
</linearGradient>
</defs>
</svg>
