<svg width="28" height="28" viewBox="0 0 28 28" fill="none" xmlns="http://www.w3.org/2000/svg">
<path d="M22.1674 3.49988H5.83407C4.55073 3.49988 3.50073 4.54988 3.50073 5.83321V22.1665C3.50073 23.4499 4.55073 24.4999 5.83407 24.4999H22.1674C23.4507 24.4999 24.5007 23.4499 24.5007 22.1665V5.83321C24.5007 4.54988 23.4507 3.49988 22.1674 3.49988ZM9.33407 19.8332C8.6924 19.8332 8.1674 19.3082 8.1674 18.6665V12.8332C8.1674 12.1915 8.6924 11.6665 9.33407 11.6665C9.97573 11.6665 10.5007 12.1915 10.5007 12.8332V18.6665C10.5007 19.3082 9.97573 19.8332 9.33407 19.8332ZM14.0007 19.8332C13.3591 19.8332 12.8341 19.3082 12.8341 18.6665V9.33321C12.8341 8.69154 13.3591 8.16654 14.0007 8.16654C14.6424 8.16654 15.1674 8.69154 15.1674 9.33321V18.6665C15.1674 19.3082 14.6424 19.8332 14.0007 19.8332ZM18.6674 19.8332C18.0257 19.8332 17.5007 19.3082 17.5007 18.6665V16.3332C17.5007 15.6915 18.0257 15.1665 18.6674 15.1665C19.3091 15.1665 19.8341 15.6915 19.8341 16.3332V18.6665C19.8341 19.3082 19.3091 19.8332 18.6674 19.8332Z" fill="#9E9E9E"/>
</svg>
