<svg width="28" height="28" viewBox="0 0 28 28" fill="none" xmlns="http://www.w3.org/2000/svg">
<path d="M14.6419 16.8541V23.8541C14.6419 24.4957 15.1669 25.0207 15.8086 25.0207H22.8086C23.4502 25.0207 23.9752 24.4957 23.9752 23.8541V16.8541C23.9752 16.2124 23.4502 15.6874 22.8086 15.6874H15.8086C15.1669 15.6874 14.6419 16.2124 14.6419 16.8541ZM4.14189 25.0207H11.1419C11.7836 25.0207 12.3086 24.4957 12.3086 23.8541V16.8541C12.3086 16.2124 11.7836 15.6874 11.1419 15.6874H4.14189C3.50022 15.6874 2.97522 16.2124 2.97522 16.8541V23.8541C2.97522 24.4957 3.50022 25.0207 4.14189 25.0207ZM2.97522 5.18741V12.1874C2.97522 12.8291 3.50022 13.3541 4.14189 13.3541H11.1419C11.7836 13.3541 12.3086 12.8291 12.3086 12.1874V5.18741C12.3086 4.54574 11.7836 4.02074 11.1419 4.02074H4.14189C3.50022 4.02074 2.97522 4.54574 2.97522 5.18741ZM18.0836 3.32074L13.1252 8.26741C12.6702 8.72241 12.6702 9.45741 13.1252 9.91241L18.0836 14.8707C18.5386 15.3257 19.2736 15.3257 19.7286 14.8707L24.6869 9.91241C25.1419 9.45741 25.1419 8.72241 24.6869 8.26741L19.7402 3.32074C19.2852 2.86574 18.5386 2.86574 18.0836 3.32074Z" fill="#9E9E9E"/>
</svg>
