<svg xmlns="http://www.w3.org/2000/svg"  viewBox="0 0 32 32" width="100px" height="100px"><path d="M 16 3 C 14.083334 3 12.518559 3.7547556 11.501953 4.8984375 C 10.485347 6.0421194 10 7.5277779 10 9 C 10 10.472222 10.485347 11.957881 11.501953 13.101562 C 12.518559 14.245244 14.083334 15 16 15 C 19.301865 15 22 12.301863 22 9 C 22 5.6981372 19.301865 3 16 3 z M 16 5 C 18.220986 5 20 6.7790155 20 9 C 20 11.220985 18.220986 13 16 13 C 14.583334 13 13.648107 12.504756 12.998047 11.773438 C 12.347987 11.042118 12 10.027778 12 9 C 12 7.9722221 12.347987 6.9578806 12.998047 6.2265625 C 13.648107 5.4952444 14.583334 5 16 5 z M 15.998047 16.957031 C 13.6409 16.957031 10.812892 17.575696 8.4628906 18.599609 C 7.2878899 19.111566 6.2324826 19.722533 5.4179688 20.470703 C 4.6034549 21.218873 3.9863281 22.165051 3.9863281 23.277344 C 3.9863281 25.107085 5.1753294 26.581253 6.6835938 27.289062 C 8.7671121 28.267191 11.939095 28.83279 15.357422 28.908203 C 18.775749 28.983613 22.407151 28.552751 25.302734 27.283203 C 26.852263 26.604338 28.013023 25.093809 28.011719 23.277344 C 28.011719 22.165051 27.394592 21.218873 26.580078 20.470703 C 25.765564 19.722533 24.710157 19.111566 23.535156 18.599609 C 21.185155 17.575696 18.355194 16.957031 15.998047 16.957031 z M 15.998047 18.957031 C 17.9899 18.957031 20.66708 19.532007 22.736328 20.433594 C 23.770952 20.884387 24.65567 21.418967 25.226562 21.943359 C 25.797456 22.467752 26.011719 22.921636 26.011719 23.277344 A 1.0001 1.0001 0 0 0 26.011719 23.279297 C 26.012415 24.248832 25.406472 25.054037 24.5 25.451172 C 22.026583 26.535624 18.611313 26.980993 15.400391 26.910156 C 12.189468 26.839316 9.1496848 26.237388 7.5332031 25.478516 C 6.5994675 25.040325 5.9863281 24.249602 5.9863281 23.277344 C 5.9863281 22.921636 6.200592 22.467752 6.7714844 21.943359 C 7.3423767 21.418967 8.2270943 20.884387 9.2617188 20.433594 C 11.330967 19.532007 14.006194 18.957031 15.998047 18.957031 z"/></svg>